<svg width="586" height="454" viewBox="0 0 586 454" fill="none" xmlns="http://www.w3.org/2000/svg">
<path d="M586 454H0C6.46456 436.576 14.4264 421.792 31.2548 417.409C55.8735 411.003 81.9264 428.618 106.49 421.994C120.446 418.235 131.433 407.281 142.977 398.184C186.532 363.861 246.218 353.719 297.758 371.884C324.696 381.375 349.244 397.974 376.841 405.03C412.526 414.158 449.845 406.588 486.543 405.341C522.284 404.127 573.493 419.519 586 454Z" fill="#F3F5FD"/>
<path d="M435.247 0H0V315.202H435.247V0Z" fill="#F3F5FD"/>
<path d="M435.247 0H0V25.9647H435.247V0Z" fill="#F3F5FD"/>
<path d="M420.669 19.4972C424.267 19.4972 427.184 16.5805 427.184 12.9827C427.184 9.38483 424.267 6.4682 420.669 6.4682C417.072 6.4682 414.155 9.38483 414.155 12.9827C414.155 16.5805 417.072 19.4972 420.669 19.4972Z" fill="white"/>
<path d="M365.473 57.1278H305.344V260.314H365.473V57.1278Z" fill="#6FBC0C"/>
<path d="M305.343 240.813H29.6666V259.221H305.343V240.813Z" fill="#EFEFEF"/>
<path d="M305.343 182.813H29.6666V201.221H305.343V182.813Z" fill="#EFEFEF"/>
<path d="M305.343 123.813H29.6666V142.221H305.343V123.813Z" fill="#EFEFEF"/>
<path d="M305.343 221H29.6666V239.407H305.343V221Z" fill="#EFEFEF"/>
<path d="M305.343 163H29.6666V181.407H305.343V163Z" fill="#EFEFEF"/>
<path d="M305.343 104H29.6666V122.407H305.343V104Z" fill="#EFEFEF"/>
<path d="M305.343 203H29.6666V221.407H305.343V203Z" fill="#EFEFEF"/>
<path d="M305.343 145H29.6666V163.407H305.343V145Z" fill="#EFEFEF"/>
<path d="M305.343 86H29.6666V104.407H305.343V86Z" fill="#EFEFEF"/>
<path d="M305.343 65H29.6666V83.4074H305.343V65Z" fill="#EFEFEF"/>
<path d="M365.473 48.4353H29.6556V65.8203H365.473V48.4353Z" fill="white"/>
<path fill-rule="evenodd" clip-rule="evenodd" d="M28.2491 48.4353H31.0621V258.908H364.067V48.4353H366.88V261.721H28.2491V48.4353Z" fill="white"/>
<path fill-rule="evenodd" clip-rule="evenodd" d="M84.2802 260.314V57.1278H87.0932V260.314H84.2802Z" fill="white"/>
<path fill-rule="evenodd" clip-rule="evenodd" d="M29.6668 82.8213H365.473V85.6343H29.6668V82.8213Z" fill="white"/>
<path fill-rule="evenodd" clip-rule="evenodd" d="M29.6668 102.377H365.473V105.19H29.6668V102.377Z" fill="white"/>
<path fill-rule="evenodd" clip-rule="evenodd" d="M29.6668 121.933H365.473V124.746H29.6668V121.933Z" fill="white"/>
<path fill-rule="evenodd" clip-rule="evenodd" d="M29.6668 141.488H365.473V144.301H29.6668V141.488Z" fill="white"/>
<path fill-rule="evenodd" clip-rule="evenodd" d="M29.6668 161.044H365.473V163.857H29.6668V161.044Z" fill="white"/>
<path fill-rule="evenodd" clip-rule="evenodd" d="M29.6668 180.599H365.473V183.412H29.6668V180.599Z" fill="white"/>
<path fill-rule="evenodd" clip-rule="evenodd" d="M29.6668 200.155H365.473V202.968H29.6668V200.155Z" fill="white"/>
<path fill-rule="evenodd" clip-rule="evenodd" d="M29.6668 219.711H365.473V222.524H29.6668V219.711Z" fill="white"/>
<path fill-rule="evenodd" clip-rule="evenodd" d="M29.6668 239.267H365.473V242.08H29.6668V239.267Z" fill="white"/>
<path fill-rule="evenodd" clip-rule="evenodd" d="M242.188 260.314V57.1278H245.001V260.314H242.188Z" fill="white"/>
<path fill-rule="evenodd" clip-rule="evenodd" d="M303.938 260.314V57.1278H306.75V260.314H303.938Z" fill="white"/>
<path d="M453.112 157.093C472.271 157.093 487.802 141.562 487.802 122.404C487.802 103.245 472.271 87.7141 453.112 87.7141C433.954 87.7141 418.423 103.245 418.423 122.404C418.423 141.562 433.954 157.093 453.112 157.093Z" fill="#FFC239"/>
<g opacity="0.29">
<path d="M453.112 144.891C465.532 144.891 475.6 134.823 475.6 122.404C475.6 109.984 465.532 99.9161 453.112 99.9161C440.693 99.9161 430.625 109.984 430.625 122.404C430.625 134.823 440.693 144.891 453.112 144.891Z" fill="white"/>
</g>
<path d="M445.752 130.436L447.849 127.183C449.512 128.457 450.966 129.107 452.513 129.107C454.367 129.107 455.182 128.336 455.182 126.849C455.182 123.486 446.549 123.544 446.549 117.642C446.549 113.848 449.177 111.431 453.322 111.431C454.499 111.414 455.666 111.653 456.741 112.132C457.816 112.611 458.774 113.319 459.548 114.206L457.142 116.961C455.951 115.88 454.946 115.311 453.58 115.311C452.006 115.311 451.152 115.945 451.152 117.413C451.152 120.532 459.787 120.261 459.787 126.513C459.787 130.268 457.301 132.985 452.513 132.985C450.035 132.93 447.65 132.031 445.752 130.436ZM451.505 108.225H454.695V112.936H451.505V108.225ZM451.505 131.024H454.695V136.192H451.505V131.024Z" fill="white"/>
<path d="M415.814 208.104C425.96 205.709 432.243 195.542 429.848 185.396C427.453 175.25 417.286 168.967 407.141 171.363C396.995 173.758 390.712 183.924 393.107 194.07C395.502 204.216 405.669 210.499 415.814 208.104Z" fill="#C1D8ED"/>
<path d="M398.973 184.986C398.973 182.118 400.852 179.898 403.961 179.898C407.044 179.898 408.947 182.14 408.947 184.986C408.947 187.807 407.069 190.119 403.961 190.119C400.852 190.119 398.973 187.81 398.973 184.986ZM405.302 184.986C405.302 183.991 404.9 183.205 403.961 183.205C403.043 183.205 402.596 184.014 402.596 184.986C402.596 185.98 403.021 186.813 403.961 186.813C404.9 186.813 405.302 185.98 405.302 184.986ZM415.814 180.787C416.111 180.76 416.409 180.813 416.679 180.941C416.948 181.069 417.178 181.267 417.344 181.515C417.51 181.763 417.606 182.05 417.623 182.348C417.639 182.646 417.575 182.943 417.437 183.207L408.607 198.134C408.435 198.407 408.195 198.631 407.911 198.785C407.627 198.938 407.307 199.015 406.984 199.009C406.688 199.036 406.389 198.983 406.12 198.855C405.85 198.727 405.621 198.529 405.455 198.281C405.288 198.034 405.192 197.746 405.176 197.448C405.159 197.151 405.224 196.854 405.361 196.59L414.191 181.663C414.363 181.39 414.603 181.166 414.887 181.012C415.171 180.859 415.49 180.781 415.813 180.787H415.814ZM413.982 194.467C413.982 191.6 415.884 189.356 418.992 189.356C422.076 189.356 423.98 191.599 423.98 194.467C423.98 197.289 422.079 199.578 418.992 199.578C415.861 199.576 413.982 197.286 413.982 194.467ZM420.334 194.467C420.334 193.473 419.909 192.663 418.992 192.663C418.053 192.663 417.628 193.473 417.628 194.467C417.628 195.438 418.053 196.271 418.992 196.271C419.931 196.271 420.334 195.436 420.334 194.467Z" fill="white"/>
<path d="M517.84 344.345L513.774 345.415L542.296 453.852L546.363 452.783L517.84 344.345Z" fill="#EFEFEF"/>
<path d="M467.373 344.557L450.36 453.003L454.514 453.655L471.528 345.209L467.373 344.557Z" fill="#EFEFEF"/>
<path d="M521.657 240.859C521.657 240.859 556.391 238.665 556.391 269.012C556.391 299.359 551.276 341.772 525.679 346.524C500.082 351.277 462.271 349.845 453.493 348.357C442.707 346.528 438.005 321.509 452.371 319.835C493.141 315.084 473.395 244.153 521.657 240.859Z" fill="#EFEFEF"/>
<path d="M395.592 280.523C395.772 280.518 439.357 280.61 439.443 280.61C445.557 280.61 447.922 284.152 447.922 284.152V286.061H388.33V284.153C391.021 282.328 393.471 280.468 395.592 280.523Z" fill="#DEE8F5"/>
<path d="M403.897 284.624C403.897 284.624 400.753 280.11 395.594 280.525C394.194 280.577 392.822 280.928 391.569 281.554C390.316 282.18 389.212 283.066 388.33 284.154V286.064H420.768V284.154C420.768 284.154 418.406 280.612 412.293 280.612C406.179 280.612 403.897 284.624 403.897 284.624Z" fill="#C1D8ED"/>
<path d="M420.769 286.064H447.921V284.155H420.769V286.064Z" fill="#C1D8ED"/>
<path d="M455.259 432.328L440.586 433.459L441.907 450.599L456.58 449.468L455.259 432.328Z" fill="#FFAC89"/>
<path d="M423.26 453.19C422.497 453.186 421.766 452.879 421.229 452.337C420.692 451.795 420.392 451.062 420.395 450.298C420.395 450.228 420.395 450.158 420.404 450.088C420.446 449.541 420.644 449.018 420.974 448.58C421.304 448.142 421.753 447.807 422.267 447.615L439.396 441.878C439.728 441.768 440.079 441.731 440.427 441.77C440.774 441.808 441.109 441.922 441.408 442.102C443.763 443.736 446.58 444.571 449.445 444.485C451.676 444.326 453.818 443.544 455.626 442.226C455.785 442.096 455.978 442.013 456.182 441.988C456.386 441.963 456.593 441.997 456.778 442.085C456.964 442.173 457.121 442.312 457.23 442.486C457.34 442.66 457.398 442.861 457.397 443.067V451.444C457.397 451.942 457.2 452.419 456.848 452.771C456.496 453.123 456.019 453.321 455.521 453.321H455.513L423.26 453.19Z" fill="#017FFA"/>
<path d="M382.284 431.672L379.401 448.812L393.914 451.253L396.797 434.113L382.284 431.672Z" fill="#FFAC89"/>
<path d="M374.788 435.429L407.1 311.121C407.822 308.343 409.445 305.884 411.715 304.128C413.985 302.372 416.774 301.419 419.644 301.418H490.456V301.464H530.127V313.621C530.127 317.126 529.437 320.597 528.096 323.835C526.754 327.074 524.788 330.016 522.31 332.495C519.832 334.973 516.889 336.939 513.651 338.281C510.413 339.622 506.942 340.312 503.437 340.313H484.088V340.389H450.311L459.611 439.279L433.796 441.703L424.803 346.081L399.883 441.949L374.788 435.429Z" fill="#262626"/>
<path d="M362.78 453.19C362.017 453.186 361.286 452.879 360.748 452.337C360.211 451.794 359.911 451.06 359.915 450.297C359.915 450.227 359.915 450.157 359.924 450.087C359.967 449.54 360.165 449.016 360.495 448.578C360.825 448.14 361.273 447.806 361.787 447.614L378.916 441.876C379.248 441.766 379.599 441.729 379.947 441.768C380.294 441.807 380.629 441.92 380.929 442.101C383.284 443.734 386.1 444.569 388.965 444.483C391.196 444.325 393.338 443.542 395.146 442.225C395.305 442.094 395.498 442.012 395.702 441.987C395.906 441.962 396.113 441.996 396.298 442.084C396.484 442.172 396.641 442.311 396.75 442.485C396.86 442.659 396.918 442.86 396.917 443.066V451.444C396.917 451.942 396.72 452.419 396.368 452.771C396.016 453.123 395.538 453.321 395.041 453.321H395.031L362.78 453.19Z" fill="#017FFA"/>
<path d="M428.738 242.05C428.738 242.05 428.633 233.633 422.617 234.071C418.821 234.347 400.787 233.511 400.518 235.153C399.854 239.218 416.35 240.211 417.847 243.998L428.738 242.05Z" fill="#FFAC89"/>
<path d="M424.75 234.342C424.75 234.342 416.376 231.609 414.318 232.099C412.496 232.532 416.294 235.498 416.294 235.498L424.75 234.342Z" fill="#FFAC89"/>
<path d="M446.038 286.08H471.493C469.991 294.165 468.083 297.562 470.052 302.083C472.989 308.832 530.684 311.635 531.455 299.764C531.945 292.209 525.288 285.608 525.288 270.892C525.288 256.175 538.834 237.366 527.797 226.329C524.601 223.133 519.065 221.059 512.323 221.052C511.819 224.983 487.943 224.997 487.761 221.143C486.85 221.157 486.142 221.178 485.701 221.192C477.473 221.547 473.441 225.093 471.671 230.386L452.96 263.877L429.037 236.962L416.161 244.202L446.037 278.985L446.038 286.08ZM472.897 268.088C472.907 269.027 472.904 269.922 472.897 270.799H466.599L472.416 260.385C472.679 263.022 472.87 265.613 472.899 268.088H472.897Z" fill="#017FFA"/>
<path d="M487.761 221.143C487.943 224.997 490.045 230.667 496.506 231.087C505.133 231.662 511.818 224.983 512.323 221.052H512.295C503.815 221.052 492.715 221.066 487.761 221.143Z" fill="#FFAC89"/>
<path d="M435.689 282.408C437.056 283.481 442.971 283.817 446.04 283.923V272.549C444.477 271.708 442.529 270.622 441.078 269.696C439.067 268.407 438.156 268.035 437.652 268.176H437.645C437.525 268.21 437.418 268.278 437.336 268.372C437.268 268.447 437.216 268.535 437.182 268.631C436.853 269.521 438.359 270.859 439.193 271.519L439.2 271.526C439.502 271.763 439.719 271.918 439.719 271.918L437.939 272.738L437.932 272.745L436.376 273.466L436.355 273.473L435.514 273.859C435.514 273.859 435.367 274.476 435.206 275.38V275.387C434.827 277.552 434.372 281.379 435.689 282.408Z" fill="#FFAC89"/>
<path d="M425.593 282.424L429.21 281.191L439.863 270.877L441.309 269.472L443.892 266.974L441.472 264.479L438.866 267.005L437.416 268.405L426.796 278.692L425.593 282.424Z" fill="#0CBC8B"/>
<path d="M437.416 268.404L439.863 270.877L441.309 269.472L438.866 267.005L437.416 268.404Z" fill="white"/>
<path d="M438.644 271.693C437.727 271.711 436.812 271.786 435.905 271.92C434.971 272.042 434.05 272.249 433.154 272.541C432.656 272.699 432.174 272.904 431.715 273.153C431.457 273.294 431.211 273.456 430.979 273.637L430.464 274.082C429.786 274.693 429.167 275.367 428.616 276.094C428.466 276.294 428.391 276.541 428.405 276.791C428.419 277.041 428.521 277.278 428.693 277.46C428.865 277.642 429.096 277.757 429.345 277.785C429.593 277.814 429.844 277.753 430.052 277.614L430.102 277.581L432.134 276.219L432.642 275.885C432.76 275.818 432.882 275.758 433.008 275.706C433.32 275.579 433.642 275.481 433.972 275.412C434.731 275.253 435.5 275.143 436.273 275.082C437.063 275.02 437.905 274.973 438.668 274.96H438.704C438.918 274.956 439.13 274.91 439.326 274.824C439.523 274.739 439.701 274.615 439.85 274.461C439.999 274.307 440.116 274.125 440.194 273.925C440.273 273.726 440.311 273.513 440.308 273.298C440.304 273.084 440.258 272.872 440.172 272.675C440.087 272.479 439.963 272.301 439.809 272.152C439.655 272.003 439.473 271.886 439.273 271.807C439.074 271.729 438.86 271.69 438.646 271.694L438.644 271.693Z" fill="#FFAC89"/>
<path d="M513.537 293.285H506.956V453.734H513.537V293.285Z" fill="#EFEFEF"/>
<path d="M570.276 292.872H563.695V453.321H570.276V292.872Z" fill="#EFEFEF"/>
<path d="M410.581 292.872H404V453.321H410.581V292.872Z" fill="#EFEFEF"/>
<g opacity="0.05">
<path d="M570.581 292.872H564V453.321H570.581V292.872Z" fill="black"/>
</g>
<g opacity="0.05">
<path d="M410.886 292.872H404.305V453.321H410.886V292.872Z" fill="black"/>
</g>
<path d="M317.369 292.872H310.788V453.321H317.369V292.872Z" fill="#EFEFEF"/>
<path d="M579.374 286.245H301.689V295.294H579.374V286.245Z" fill="#EFEFEF"/>
<path d="M370.687 245.743L379.194 281.463C379.326 282.019 379.33 282.597 379.207 283.155C379.084 283.713 378.836 284.235 378.482 284.684C378.128 285.132 377.677 285.494 377.163 285.743C376.649 285.993 376.085 286.122 375.514 286.122H325.351C324.522 286.122 323.716 285.85 323.057 285.348C322.398 284.845 321.922 284.14 321.703 283.341L311.898 247.621C311.744 247.06 311.722 246.471 311.833 245.899C311.944 245.328 312.185 244.789 312.538 244.326C312.891 243.863 313.346 243.488 313.868 243.23C314.39 242.971 314.964 242.837 315.546 242.837H367.006C367.857 242.837 368.683 243.123 369.351 243.651C370.019 244.178 370.489 244.915 370.687 245.743Z" fill="#EAEAEA"/>
<path d="M397.054 286.123H336.423C335.834 286.123 335.269 285.888 334.852 285.471C334.435 285.055 334.201 284.489 334.201 283.9C334.201 283.31 334.435 282.745 334.852 282.328C335.269 281.911 335.834 281.677 336.423 281.677H397.054C397.644 281.677 398.209 281.911 398.626 282.328C399.043 282.745 399.277 283.31 399.277 283.9C399.277 284.489 399.043 285.055 398.626 285.471C398.209 285.888 397.644 286.123 397.054 286.123Z" fill="#EAEAEA"/>
<path d="M343.493 270.06C346.77 270.06 349.426 267.404 349.426 264.127C349.426 260.85 346.77 258.194 343.493 258.194C340.216 258.194 337.56 260.85 337.56 264.127C337.56 267.404 340.216 270.06 343.493 270.06Z" fill="white"/>
<path d="M481.679 182.377C481.679 182.377 476.367 201.41 473.383 211.286C473.241 211.754 473.211 212.248 473.296 212.73C473.38 213.211 473.575 213.667 473.867 214.059C474.159 214.451 474.538 214.77 474.975 214.989C475.412 215.208 475.894 215.322 476.383 215.322H495.024C495.829 215.322 496.603 215.011 497.186 214.456C497.768 213.9 498.115 213.141 498.153 212.337L499.41 185.843L481.679 182.377Z" fill="#701111"/>
<path d="M510.247 224.714C510.247 224.714 504.825 221.846 506.022 207.089L494.822 205.023C494.822 205.023 496.092 218.252 490.432 222.457L510.247 224.714Z" fill="#FFAC89"/>
<g opacity="0.15">
<path d="M492.725 219.69L502.019 212.566L494.715 212.495C494.505 214.996 493.83 217.436 492.725 219.69Z" fill="black"/>
</g>
<path d="M512.369 201.362C511.598 205.839 509.159 210.081 505.211 211.53C500.908 213.243 496.251 213.877 491.647 213.376C479.39 212.382 481.789 184.511 487.604 179.093C493.418 173.674 510.498 177.087 512.584 186.139C513.662 190.823 513.103 197.103 512.369 201.362Z" fill="#FFAC89"/>
<path d="M494.833 197.929C495.393 197.929 495.848 197.474 495.848 196.914C495.848 196.353 495.393 195.898 494.833 195.898C494.272 195.898 493.817 196.353 493.817 196.914C493.817 197.474 494.272 197.929 494.833 197.929Z" fill="#0F1011"/>
<path d="M486.821 197.279C487.382 197.279 487.837 196.825 487.837 196.264C487.837 195.703 487.382 195.249 486.821 195.249C486.26 195.249 485.806 195.703 485.806 196.264C485.806 196.825 486.26 197.279 486.821 197.279Z" fill="#0F1011"/>
<path d="M485.059 194.102H485.065L487.756 194.066C487.882 194.064 488.003 194.012 488.091 193.921C488.18 193.831 488.228 193.709 488.227 193.582C488.225 193.456 488.173 193.335 488.082 193.246C487.992 193.158 487.87 193.109 487.743 193.111L485.053 193.148C484.99 193.148 484.928 193.161 484.87 193.185C484.813 193.209 484.76 193.245 484.716 193.29C484.672 193.334 484.637 193.387 484.614 193.445C484.59 193.503 484.578 193.565 484.579 193.628C484.579 193.691 484.592 193.753 484.616 193.81C484.641 193.868 484.676 193.92 484.721 193.965C484.765 194.009 484.818 194.043 484.876 194.067C484.934 194.091 484.997 194.102 485.059 194.102Z" fill="#0F1011"/>
<path d="M497.022 195.072C497.138 195.072 497.251 195.029 497.338 194.951C497.426 194.874 497.481 194.767 497.495 194.651C497.509 194.535 497.479 194.418 497.413 194.322C497.346 194.226 497.247 194.158 497.133 194.131L494.481 193.495C494.419 193.479 494.355 193.475 494.292 193.484C494.229 193.493 494.169 193.514 494.114 193.547C494.059 193.58 494.012 193.623 493.974 193.674C493.937 193.725 493.909 193.783 493.895 193.845C493.88 193.907 493.877 193.971 493.888 194.034C493.898 194.097 493.921 194.157 493.955 194.211C493.988 194.264 494.033 194.311 494.085 194.347C494.137 194.384 494.196 194.41 494.258 194.423L496.909 195.059C496.946 195.068 496.984 195.072 497.022 195.072Z" fill="#0F1011"/>
<path d="M494.37 204.909C494.37 204.909 490.622 205.308 487.993 204.392C487.993 204.392 488.016 206.861 490.982 207.102C493.949 207.343 494.37 204.909 494.37 204.909Z" fill="white"/>
<g opacity="0.15">
<path d="M490.329 202.55C490.413 202.55 490.494 202.52 490.558 202.465C490.621 202.41 490.663 202.335 490.676 202.252C490.688 202.169 490.67 202.084 490.626 202.013C490.581 201.942 490.512 201.889 490.432 201.865L488.367 201.234L489.808 198.015C489.842 197.931 489.841 197.838 489.807 197.754C489.773 197.67 489.708 197.603 489.626 197.566C489.543 197.529 489.45 197.525 489.365 197.556C489.279 197.586 489.209 197.648 489.169 197.729L487.403 201.672L490.227 202.537C490.26 202.546 490.294 202.551 490.329 202.55Z" fill="black"/>
</g>
<path d="M481.039 184.656C481.039 184.656 482.834 170.141 506.092 173.706C511.89 174.594 520.108 179.121 521.439 193.958C522.048 200.764 524.394 207.181 526.184 211.243C526.395 211.72 526.485 212.242 526.444 212.762C526.402 213.283 526.232 213.784 525.948 214.222C525.664 214.659 525.275 215.019 524.816 215.268C524.358 215.517 523.844 215.648 523.322 215.648L506.973 215.654C506.562 215.655 506.155 215.575 505.775 215.418C505.396 215.262 505.05 215.032 504.759 214.742C504.468 214.452 504.237 214.107 504.079 213.728C503.921 213.349 503.84 212.942 503.839 212.531C503.839 212.485 503.839 212.439 503.839 212.391C503.957 209.608 504.049 204.897 503.891 197.696C503.041 193.586 505.305 190.688 502.019 191.632C489.815 195.137 481.956 184.894 481.039 184.656Z" fill="#701111"/>
<path d="M499.964 201.286C499.918 201.849 499.984 202.416 500.157 202.954C500.33 203.492 500.608 203.991 500.974 204.422C501.714 205.292 502.768 205.832 503.906 205.925C505.044 206.017 506.173 205.653 507.043 204.914C507.912 204.174 508.453 203.12 508.545 201.982C508.655 200.864 508.316 199.75 507.603 198.882C506.891 198.015 505.863 197.466 504.746 197.356C504.698 197.352 504.65 197.347 504.606 197.345C501.534 197.244 500.156 198.916 499.964 201.286Z" fill="#FFAC89"/>
<path d="M101.538 446.418L86.9247 444.679C87.5828 439.149 88.3263 432.505 88.3768 431.416C88.3768 431.486 88.3768 431.543 88.3768 431.587H103.093C103.09 432.032 103.09 433.371 101.538 446.418Z" fill="#FFBC96"/>
<path d="M42.9003 448.176L28.1839 448.129C28.1839 448.129 28.233 432.933 28.233 431.59H42.9494C42.9494 432.936 42.9003 448.176 42.9003 448.176Z" fill="#FFBC96"/>
<path d="M81.0426 441.773L106.968 441.331C105.89 414.027 105.707 382.796 105.417 354.536C102.859 317.487 97.3183 280.813 91.3252 244.127L91.1381 244.182L90.59 240.447L37.2773 237.157C33.6332 277.242 29.7789 358.462 24.3906 440.937L50.2278 443.12C54.8831 395.615 62.0892 326.399 66.5182 276.495C79.2395 330.884 82.1435 386.255 81.0426 441.773Z" fill="#191047"/>
<path d="M60.7899 453.869C63.9077 453.939 64.7283 449.303 61.7829 448.293C60.5824 448.223 43.339 441.226 42.6417 442.78C33.2659 449.35 27.2245 439.961 26.6526 443.747V452.123C26.6526 452.37 26.7014 452.615 26.7962 452.843C26.891 453.071 27.03 453.279 27.205 453.453C27.3801 453.627 27.5879 453.765 27.8165 453.859C28.0451 453.953 28.29 454.001 28.5371 454L60.7899 453.869Z" fill="#017FFA"/>
<path d="M119.468 453.869C122.586 453.939 123.408 449.303 120.462 448.293C119.261 448.223 102.018 441.226 101.32 442.78C91.9452 449.35 85.9066 439.961 85.3319 443.747V452.123C85.3319 452.37 85.3807 452.615 85.4755 452.843C85.5703 453.071 85.7092 453.279 85.8843 453.453C86.0594 453.627 86.2672 453.765 86.4958 453.859C86.7243 453.953 86.9692 454.001 87.2163 454L119.468 453.869Z" fill="#017FFA"/>
<path d="M106.191 217.067C110.747 216.436 123.197 216.541 111.008 220.15L106.191 217.067Z" fill="#FFBC96"/>
<path d="M105.06 225.712C105.06 225.712 119.612 231.691 127.975 224.871C128.184 224.696 128.336 224.462 128.411 224.199C128.486 223.937 128.481 223.658 128.397 223.398C128.313 223.138 128.154 222.909 127.939 222.741C127.725 222.572 127.465 222.471 127.192 222.451C121.556 222.117 109.978 220.979 111.33 217.265H102.238" fill="#FFBC96"/>
<path d="M116.977 209.189C118.334 209.187 119.666 208.818 120.83 208.121C121.995 207.423 122.949 206.424 123.591 205.228L143.597 167.872L130.368 160.788L115.012 189.463L89.9511 165.627L80.8704 177.702C84.0043 179.593 113.067 211.163 116.977 209.189Z" fill="#017FFA"/>
<path d="M95.1529 244.404C92.1591 251.284 34.7321 254.144 33.9458 242.038C33.4455 234.335 36.73 227.611 36.73 212.598C34.7244 192.018 19.1488 162.786 52.0512 161.78C52.5656 165.789 76.9038 165.803 77.0888 161.873C102.878 161.048 92.827 189.096 92.2516 209.748C91.9734 232.94 98.2398 237.315 95.1529 244.404Z" fill="#017FFA"/>
<path d="M77.0858 161.873C76.5771 178.355 53.6152 171.777 52.0483 161.78C60.705 161.78 72.0402 161.795 77.0858 161.873Z" fill="#FFBC96"/>
<path d="M63.0964 231.959C63.2674 231.964 108.031 230.589 108.236 230.586L107.76 215.013L67.9367 216.227L46.9259 172.26L32.8668 178.98L56.0676 227.53C56.7018 228.856 57.6984 229.976 58.9422 230.76C60.186 231.544 61.6263 231.959 63.0964 231.959Z" fill="#017FFA"/>
<path d="M146.411 159.879L141.281 166.635L131.106 161.18C132.928 158.405 137.357 154.803 137.357 154.803L146.411 159.879Z" fill="#FFBC96"/>
<path d="M175.463 138.458L145.859 133.574C144.645 133.373 143.499 134.195 143.299 135.409L136.901 174.182C136.701 175.396 137.523 176.542 138.737 176.743L168.341 181.627C169.555 181.828 170.701 181.006 170.901 179.792L177.299 141.019C177.499 139.805 176.677 138.658 175.463 138.458Z" fill="#262626"/>
<path d="M173.136 141.923L146.949 137.603C146.52 137.532 146.114 137.822 146.044 138.252L145.312 142.684C145.241 143.114 145.532 143.519 145.961 143.59L172.148 147.91C172.577 147.981 172.983 147.691 173.053 147.261L173.785 142.829C173.856 142.399 173.565 141.994 173.136 141.923Z" fill="white"/>
<path d="M151.636 146.977L146.57 146.141C145.862 146.024 145.194 146.503 145.077 147.211L144.564 150.32C144.447 151.028 144.926 151.696 145.634 151.813L150.701 152.649C151.408 152.765 152.077 152.286 152.193 151.579L152.706 148.469C152.823 147.762 152.344 147.093 151.636 146.977Z" fill="#FD5D76"/>
<path opacity="0.29" d="M161.195 148.554L156.128 147.718C155.42 147.602 154.752 148.081 154.635 148.788L154.122 151.898C154.006 152.605 154.485 153.274 155.192 153.39L160.259 154.226C160.967 154.343 161.635 153.864 161.752 153.156L162.265 150.047C162.381 149.339 161.902 148.671 161.195 148.554Z" fill="white"/>
<path opacity="0.29" d="M170.753 150.131L165.686 149.295C164.979 149.178 164.31 149.657 164.194 150.365L163.68 153.474C163.564 154.181 164.043 154.85 164.75 154.967L169.817 155.803C170.525 155.919 171.193 155.44 171.31 154.733L171.823 151.623C171.94 150.916 171.461 150.247 170.753 150.131Z" fill="white"/>
<path opacity="0.29" d="M150.428 154.304L145.361 153.468C144.653 153.351 143.985 153.83 143.868 154.538L143.355 157.647C143.238 158.355 143.717 159.023 144.425 159.14L149.492 159.976C150.199 160.092 150.868 159.613 150.984 158.906L151.497 155.796C151.614 155.089 151.135 154.421 150.428 154.304Z" fill="white"/>
<path opacity="0.29" d="M159.986 155.881L154.919 155.045C154.212 154.928 153.544 155.407 153.427 156.115L152.914 159.224C152.797 159.932 153.276 160.6 153.984 160.717L159.05 161.553C159.758 161.669 160.426 161.19 160.543 160.483L161.056 157.374C161.173 156.666 160.694 155.998 159.986 155.881Z" fill="white"/>
<path opacity="0.29" d="M169.569 157.546L164.5 156.709C163.792 156.592 163.124 157.071 163.007 157.779L162.493 160.89C162.376 161.598 162.855 162.266 163.563 162.383L168.632 163.22C169.34 163.337 170.008 162.858 170.125 162.15L170.639 159.04C170.756 158.332 170.277 157.663 169.569 157.546Z" fill="white"/>
<path opacity="0.29" d="M149.219 161.631L144.152 160.795C143.445 160.678 142.776 161.157 142.659 161.865L142.146 164.974C142.03 165.682 142.509 166.35 143.216 166.467L148.283 167.303C148.991 167.42 149.659 166.941 149.776 166.233L150.289 163.124C150.406 162.416 149.927 161.748 149.219 161.631Z" fill="white"/>
<path opacity="0.29" d="M158.777 163.207L153.711 162.371C153.003 162.255 152.335 162.734 152.218 163.441L151.705 166.551C151.588 167.258 152.067 167.926 152.775 168.043L157.842 168.879C158.549 168.996 159.217 168.517 159.334 167.809L159.847 164.7C159.964 163.992 159.485 163.324 158.777 163.207Z" fill="white"/>
<path opacity="0.29" d="M148.01 168.957L142.943 168.121C142.236 168.005 141.567 168.484 141.451 169.191L140.938 172.301C140.821 173.008 141.3 173.677 142.007 173.793L147.074 174.629C147.782 174.746 148.45 174.267 148.567 173.559L149.08 170.45C149.197 169.742 148.718 169.074 148.01 168.957Z" fill="white"/>
<path opacity="0.29" d="M157.568 170.535L152.502 169.699C151.794 169.582 151.126 170.061 151.009 170.768L150.496 173.878C150.379 174.585 150.858 175.254 151.566 175.37L156.633 176.206C157.34 176.323 158.009 175.844 158.125 175.137L158.638 172.027C158.755 171.32 158.276 170.651 157.568 170.535Z" fill="white"/>
<path d="M163.267 163.949C163.099 163.922 162.927 163.927 162.761 163.966C162.595 164.005 162.438 164.076 162.299 164.175C162.161 164.275 162.043 164.4 161.953 164.545C161.863 164.69 161.802 164.851 161.775 165.02L160.849 170.626L160.639 171.887L160.051 175.444C159.996 175.784 160.077 176.132 160.278 176.412C160.478 176.692 160.782 176.881 161.122 176.937L166.188 177.772C166.356 177.8 166.529 177.795 166.695 177.756C166.861 177.717 167.018 177.646 167.156 177.547C167.295 177.448 167.412 177.322 167.503 177.177C167.593 177.032 167.653 176.871 167.681 176.703L168.267 173.146L168.478 171.884L169.403 166.278C169.459 165.938 169.378 165.59 169.177 165.31C168.977 165.03 168.673 164.842 168.333 164.785L163.267 163.949Z" fill="#0CBC8B"/>
<path d="M135.543 161.044C135.543 161.044 132.53 159.535 134.463 157.498C137.018 154.808 140.406 151.911 142.367 152.954C143.602 153.61 140.102 157.376 137.461 160.018" fill="#FFBC96"/>
<path d="M58.9972 152.343C59.0042 152.147 59.0042 151.958 59.0042 151.754C59.0112 150.48 58.9558 149.092 58.829 147.579L60.3006 147.305L70.0268 145.504C69.8329 147.992 69.8707 150.493 70.1396 152.974C70.174 153.254 70.2097 153.542 70.2511 153.83C70.2791 154.053 70.3148 154.284 70.3562 154.509C70.3975 154.734 70.4263 154.95 70.4753 155.167C70.5594 155.63 70.6575 156.093 70.7766 156.548C70.7985 156.657 70.8266 156.765 70.8607 156.871C70.8625 156.89 70.8672 156.909 70.8748 156.926C70.9308 157.158 71.0009 157.396 71.078 157.62C71.1551 157.879 71.2392 158.132 71.338 158.385C71.366 158.461 71.394 158.546 71.4284 158.623C71.5195 158.875 71.6246 159.12 71.7367 159.358C71.8558 159.631 71.989 159.898 72.1292 160.157C72.131 160.157 72.1328 160.158 72.1341 160.159C72.1354 160.16 72.1362 160.162 72.1362 160.164C72.6645 161.199 73.4078 162.109 74.3163 162.834H56.7056C57.7918 160.956 58.9131 157.725 58.9972 152.343Z" fill="#FFBC96"/>
<path opacity="0.15" d="M72.1393 160.167L62.8385 153.051L70.1435 152.975C70.3552 155.476 71.032 157.915 72.1393 160.167Z" fill="black"/>
<path d="M52.4787 141.857C53.2538 146.334 55.6974 150.574 59.6463 152.019C64.3339 153.736 67.8062 153.852 73.2114 153.852C80.5878 153.852 80.344 146.159 80.5507 138.408C80.7609 130.625 80.14 122.277 77.2248 119.565C71.4083 114.152 54.3281 117.58 52.251 126.634C51.1767 131.318 51.7415 137.596 52.4787 141.857Z" fill="#FFBC96"/>
<path d="M85.1078 119.479C83.8738 114.955 80.0286 112.744 73.669 114.406C69.1461 115.588 68.5736 114.525 64.7438 112.682C62.5504 111.626 55.3533 112.108 53.5726 116.979C51.6637 122.197 45.7575 117.971 45.2088 126.472C44.7505 133.587 46.1282 142.827 54.0323 149.046C55.2932 150.313 56.7258 151.397 58.2882 152.265C58.9588 152.664 59.1214 152.34 59.3541 151.595C60.1768 148.963 61.8405 139.761 61.1607 132.272C61.0493 131.04 61.2791 129.125 64.4383 128.992C67.8889 128.847 76.8568 129.623 80.0307 127.348C80.0293 127.348 86.3419 124.004 85.1078 119.479Z" fill="#505C67"/>
<path d="M70.0116 138.409C70.5724 138.409 71.027 137.954 71.027 137.393C71.027 136.832 70.5724 136.378 70.0116 136.378C69.4508 136.378 68.9962 136.832 68.9962 137.393C68.9962 137.954 69.4508 138.409 70.0116 138.409Z" fill="#505C67"/>
<path d="M78.022 137.752C78.5828 137.752 79.0374 137.297 79.0374 136.737C79.0374 136.176 78.5828 135.721 78.022 135.721C77.4612 135.721 77.0066 136.176 77.0066 136.737C77.0066 137.297 77.4612 137.752 78.022 137.752Z" fill="#505C67"/>
<path d="M79.7818 134.573H79.7762L77.0859 134.539C76.9626 134.533 76.8462 134.48 76.7611 134.391C76.6761 134.301 76.629 134.182 76.6298 134.059C76.6306 133.936 76.6793 133.817 76.7655 133.729C76.8517 133.641 76.9688 133.589 77.0922 133.585H77.0978L79.7881 133.618C79.9147 133.619 80.0357 133.67 80.1246 133.76C80.2135 133.85 80.263 133.972 80.2622 134.099C80.2614 134.225 80.2103 134.346 80.1202 134.435C80.0301 134.524 79.9084 134.573 79.7818 134.573Z" fill="#505C67"/>
<path d="M67.8195 135.553C67.7028 135.553 67.5902 135.51 67.5031 135.432C67.416 135.354 67.3604 135.247 67.3467 135.132C67.3331 135.016 67.3624 134.899 67.4291 134.803C67.4958 134.707 67.5953 134.639 67.7087 134.612L70.3605 133.973C70.4836 133.944 70.6135 133.964 70.7214 134.031C70.8294 134.097 70.9066 134.203 70.9362 134.326C70.9658 134.449 70.9452 134.579 70.879 134.687C70.8128 134.795 70.7065 134.872 70.5834 134.902L67.9316 135.54C67.8948 135.549 67.8572 135.553 67.8195 135.553Z" fill="#505C67"/>
<path d="M64.7291 139.876C64.7835 140.444 64.7246 141.017 64.5557 141.562C64.3868 142.107 64.1113 142.613 63.7452 143.05C63.3791 143.488 62.9297 143.848 62.4231 144.11C61.9165 144.373 61.3628 144.532 60.7943 144.578C60.2257 144.624 59.6536 144.557 59.1111 144.381C58.5687 144.204 58.0668 143.922 57.6345 143.549C57.2023 143.177 56.8483 142.723 56.5933 142.212C56.3382 141.702 56.1871 141.146 56.1487 140.577C56.0927 140.012 56.151 139.441 56.3202 138.899C56.4893 138.356 56.7659 137.854 57.1334 137.421C57.5008 136.988 57.9517 136.633 58.4592 136.378C58.9666 136.122 59.5203 135.972 60.0871 135.935C63.1551 135.839 64.5349 137.508 64.7291 139.876Z" fill="#FFBC96"/>
<g opacity="0.15">
<path d="M74.519 143.026C74.4351 143.026 74.3539 142.995 74.2903 142.941C74.2266 142.886 74.1848 142.81 74.1723 142.727C74.1598 142.644 74.1775 142.559 74.2223 142.488C74.267 142.417 74.3357 142.365 74.416 142.34L76.4812 141.706L75.0369 138.489C75.0173 138.447 75.0063 138.402 75.0045 138.355C75.0027 138.309 75.0101 138.263 75.0263 138.219C75.0425 138.176 75.0672 138.136 75.0989 138.102C75.1306 138.068 75.1687 138.041 75.211 138.022C75.2533 138.003 75.2989 137.993 75.3453 137.991C75.3917 137.99 75.4378 137.998 75.4811 138.015C75.5243 138.032 75.5638 138.057 75.5973 138.089C75.6308 138.121 75.6575 138.159 75.676 138.202L77.2829 141.78C77.3034 141.826 77.314 141.875 77.314 141.925C77.314 141.974 77.3034 142.023 77.2829 142.069C77.2625 142.114 77.2325 142.155 77.1952 142.188C77.1579 142.22 77.1139 142.245 77.0664 142.26L74.622 143.01C74.5886 143.02 74.5539 143.026 74.519 143.026Z" fill="black"/>
</g>
<path d="M70.481 145.39C70.481 145.39 74.2295 145.786 76.8582 144.868C76.8582 144.868 76.8372 147.336 73.8714 147.579C70.9057 147.822 70.481 145.39 70.481 145.39Z" fill="#F8FCFF"/>
</svg>
