<svg width="421" height="478" viewBox="0 0 421 478" fill="none" xmlns="http://www.w3.org/2000/svg">
<g clip-path="url(#clip0_864_7152)">
<path d="M404.865 116.548L286.166 116.548C283.91 116.548 281.747 115.654 280.151 114.062C278.556 112.47 277.66 110.312 277.66 108.061V21.8481C277.66 19.5982 278.555 17.4405 280.15 15.8496C281.745 14.2587 283.907 13.3649 286.162 13.3649L404.869 13.3649C407.124 13.3649 409.287 14.2587 410.881 15.8496C412.476 17.4405 413.372 19.5982 413.372 21.8481V108.061C413.372 110.312 412.476 112.47 410.88 114.062C409.285 115.654 407.121 116.548 404.865 116.548Z" fill="white"/>
<path d="M277.304 108.06V21.8476C277.304 19.5037 278.237 17.2557 279.899 15.5983C281.56 13.9409 283.813 13.0098 286.162 13.0098H404.869C407.218 13.0098 409.471 13.9409 411.133 15.5983C412.794 17.2557 413.727 19.5037 413.727 21.8476V108.06C413.727 109.221 413.498 110.371 413.053 111.444C412.607 112.516 411.954 113.491 411.132 114.312C410.309 115.133 409.332 115.785 408.256 116.229C407.181 116.673 406.029 116.902 404.865 116.902H286.166C285.003 116.902 283.85 116.673 282.775 116.229C281.7 115.785 280.723 115.133 279.9 114.312C279.077 113.491 278.424 112.516 277.979 111.444C277.533 110.371 277.304 109.221 277.304 108.06ZM286.162 13.719C284.002 13.7196 281.93 14.5762 280.403 16.1006C278.875 17.625 278.017 19.6922 278.017 21.8476V108.06C278.017 110.217 278.876 112.286 280.405 113.811C281.933 115.336 284.007 116.193 286.169 116.193H404.865C407.027 116.193 409.1 115.336 410.629 113.811C412.158 112.286 413.016 110.217 413.016 108.06V21.8476C413.016 19.6918 412.158 17.6242 410.63 16.0998C409.102 14.5754 407.03 13.719 404.869 13.719H286.162Z" fill="#1C1541"/>
<path d="M277.66 21.8465V29.03H413.371V21.8465C413.371 19.5966 412.475 17.4389 410.88 15.848C409.286 14.257 407.123 13.3633 404.868 13.3633H286.162C285.046 13.3633 283.94 13.5827 282.909 14.009C281.877 14.4354 280.94 15.0603 280.15 15.848C279.361 16.6358 278.734 17.5709 278.307 18.6002C277.88 19.6294 277.66 20.7325 277.66 21.8465Z" fill="#1C1541"/>
<path d="M324.007 40.6416H317.604C317.528 40.6416 317.456 40.6117 317.403 40.5585C317.349 40.5053 317.319 40.4331 317.319 40.3579C317.319 40.2827 317.349 40.2105 317.403 40.1573C317.456 40.1041 317.528 40.0742 317.604 40.0742H324.007C324.083 40.0742 324.155 40.1041 324.208 40.1573C324.262 40.2105 324.292 40.2827 324.292 40.3579C324.292 40.4331 324.262 40.5053 324.208 40.5585C324.155 40.6117 324.083 40.6416 324.007 40.6416Z" fill="#ADADAD"/>
<path d="M312.985 40.6416H310.562C310.487 40.6416 310.415 40.6117 310.361 40.5585C310.308 40.5053 310.278 40.4331 310.278 40.3579C310.278 40.2827 310.308 40.2105 310.361 40.1573C310.415 40.1041 310.487 40.0742 310.562 40.0742H312.985C313.061 40.0742 313.133 40.1041 313.187 40.1573C313.24 40.2105 313.27 40.2827 313.27 40.3579C313.27 40.4331 313.24 40.5053 313.187 40.5585C313.133 40.6117 313.061 40.6416 312.985 40.6416Z" fill="#367CFF"/>
<path d="M312.985 45.7593H310.562C310.487 45.7593 310.415 45.7294 310.361 45.6762C310.308 45.623 310.278 45.5508 310.278 45.4756C310.278 45.4003 310.308 45.3282 310.361 45.275C310.415 45.2218 310.487 45.1919 310.562 45.1919H312.985C313.061 45.1919 313.133 45.2218 313.187 45.275C313.24 45.3282 313.27 45.4003 313.27 45.4756C313.27 45.5508 313.24 45.623 313.187 45.6762C313.133 45.7294 313.061 45.7593 312.985 45.7593Z" fill="#367CFF"/>
<path d="M312.985 50.8769H310.562C310.487 50.8769 310.415 50.847 310.361 50.7938C310.308 50.7406 310.278 50.6685 310.278 50.5933C310.278 50.518 310.308 50.4459 310.361 50.3927C310.415 50.3395 310.487 50.3096 310.562 50.3096H312.985C313.061 50.3096 313.133 50.3395 313.187 50.3927C313.24 50.4459 313.27 50.518 313.27 50.5933C313.27 50.6685 313.24 50.7406 313.187 50.7938C313.133 50.847 313.061 50.8769 312.985 50.8769Z" fill="#367CFF"/>
<path d="M312.985 55.9946H310.562C310.487 55.9946 310.415 55.9647 310.361 55.9115C310.308 55.8583 310.278 55.7862 310.278 55.7109C310.278 55.6357 310.308 55.5635 310.361 55.5103C310.415 55.4571 310.487 55.4272 310.562 55.4272H312.985C313.061 55.4272 313.133 55.4571 313.187 55.5103C313.24 55.5635 313.27 55.6357 313.27 55.7109C313.27 55.7862 313.24 55.8583 313.187 55.9115C313.133 55.9647 313.061 55.9946 312.985 55.9946Z" fill="#367CFF"/>
<path d="M312.985 61.1123H310.562C310.487 61.1123 310.415 61.0824 310.361 61.0292C310.308 60.976 310.278 60.9038 310.278 60.8286C310.278 60.7534 310.308 60.6812 310.361 60.628C310.415 60.5748 310.487 60.5449 310.562 60.5449H312.985C313.061 60.5449 313.133 60.5748 313.187 60.628C313.24 60.6812 313.27 60.7534 313.27 60.8286C313.27 60.9038 313.24 60.976 313.187 61.0292C313.133 61.0824 313.061 61.1123 312.985 61.1123Z" fill="#367CFF"/>
<path d="M312.985 66.2297H310.562C310.487 66.2297 310.415 66.1998 310.361 66.1466C310.308 66.0934 310.278 66.0213 310.278 65.946C310.278 65.8708 310.308 65.7986 310.361 65.7454C310.415 65.6922 310.487 65.6624 310.562 65.6624H312.985C313.061 65.6624 313.133 65.6922 313.187 65.7454C313.24 65.7986 313.27 65.8708 313.27 65.946C313.27 66.0213 313.24 66.0934 313.187 66.1466C313.133 66.1998 313.061 66.2297 312.985 66.2297Z" fill="#367CFF"/>
<path d="M312.985 71.3474H310.562C310.487 71.3474 310.415 71.3175 310.361 71.2643C310.308 71.2111 310.278 71.1389 310.278 71.0637C310.278 70.9885 310.308 70.9163 310.361 70.8631C310.415 70.8099 310.487 70.78 310.562 70.78H312.985C313.061 70.78 313.133 70.8099 313.187 70.8631C313.24 70.9163 313.27 70.9885 313.27 71.0637C313.27 71.1389 313.24 71.2111 313.187 71.2643C313.133 71.3175 313.061 71.3474 312.985 71.3474Z" fill="#367CFF"/>
<path d="M312.985 76.4651H310.562C310.487 76.4651 310.415 76.4352 310.361 76.382C310.308 76.3288 310.278 76.2566 310.278 76.1814C310.278 76.1062 310.308 76.034 310.361 75.9808C310.415 75.9276 310.487 75.8977 310.562 75.8977H312.985C313.061 75.8977 313.133 75.9276 313.187 75.9808C313.24 76.034 313.27 76.1062 313.27 76.1814C313.27 76.2566 313.24 76.3288 313.187 76.382C313.133 76.4352 313.061 76.4651 312.985 76.4651Z" fill="#367CFF"/>
<path d="M312.985 81.5827H310.562C310.487 81.5827 310.415 81.5529 310.361 81.4997C310.308 81.4465 310.278 81.3743 310.278 81.2991C310.278 81.2238 310.308 81.1517 310.361 81.0985C310.415 81.0453 310.487 81.0154 310.562 81.0154H312.985C313.061 81.0154 313.133 81.0453 313.187 81.0985C313.24 81.1517 313.27 81.2238 313.27 81.2991C313.27 81.3743 313.24 81.4465 313.187 81.4997C313.133 81.5529 313.061 81.5827 312.985 81.5827Z" fill="#367CFF"/>
<path d="M312.985 86.7004H310.562C310.487 86.7004 310.415 86.6705 310.361 86.6173C310.308 86.5641 310.278 86.492 310.278 86.4167C310.278 86.3415 310.308 86.2694 310.361 86.2161C310.415 86.1629 310.487 86.1331 310.562 86.1331H312.985C313.061 86.1331 313.133 86.1629 313.187 86.2161C313.24 86.2694 313.27 86.3415 313.27 86.4167C313.27 86.492 313.24 86.5641 313.187 86.6173C313.133 86.6705 313.061 86.7004 312.985 86.7004Z" fill="#367CFF"/>
<path d="M312.985 91.8181H310.562C310.487 91.8181 310.415 91.7882 310.361 91.735C310.308 91.6818 310.278 91.6097 310.278 91.5344C310.278 91.4592 310.308 91.387 310.361 91.3338C310.415 91.2806 310.487 91.2507 310.562 91.2507H312.985C313.061 91.2507 313.133 91.2806 313.187 91.3338C313.24 91.387 313.27 91.4592 313.27 91.5344C313.27 91.6097 313.24 91.6818 313.187 91.735C313.133 91.7882 313.061 91.8181 312.985 91.8181Z" fill="#367CFF"/>
<path d="M312.985 96.9358H310.562C310.487 96.9358 310.415 96.9059 310.361 96.8527C310.308 96.7995 310.278 96.7273 310.278 96.6521C310.278 96.5769 310.308 96.5047 310.361 96.4515C310.415 96.3983 310.487 96.3684 310.562 96.3684H312.985C313.061 96.3684 313.133 96.3983 313.187 96.4515C313.24 96.5047 313.27 96.5769 313.27 96.6521C313.27 96.7273 313.24 96.7995 313.187 96.8527C313.133 96.9059 313.061 96.9358 312.985 96.9358Z" fill="#367CFF"/>
<path d="M312.985 102.053H310.562C310.487 102.053 310.415 102.024 310.361 101.97C310.308 101.917 310.278 101.845 310.278 101.77C310.278 101.695 310.308 101.622 310.361 101.569C310.415 101.516 310.487 101.486 310.562 101.486H312.985C313.061 101.486 313.133 101.516 313.187 101.569C313.24 101.622 313.27 101.695 313.27 101.77C313.27 101.845 313.24 101.917 313.187 101.97C313.133 102.024 313.061 102.053 312.985 102.053Z" fill="#367CFF"/>
<path d="M312.985 107.172H310.562C310.487 107.172 310.415 107.142 310.361 107.089C310.308 107.035 310.278 106.963 310.278 106.888C310.278 106.813 310.308 106.741 310.361 106.687C310.415 106.634 310.487 106.604 310.562 106.604H312.985C313.061 106.604 313.133 106.634 313.187 106.687C313.24 106.741 313.27 106.813 313.27 106.888C313.27 106.963 313.24 107.035 313.187 107.089C313.133 107.142 313.061 107.172 312.985 107.172Z" fill="#367CFF"/>
<path d="M329.126 45.7593H323.29C323.215 45.7593 323.143 45.7294 323.089 45.6762C323.036 45.623 323.006 45.5508 323.006 45.4756C323.006 45.4003 323.036 45.3282 323.089 45.275C323.143 45.2218 323.215 45.1919 323.29 45.1919H329.126C329.201 45.1919 329.273 45.2218 329.327 45.275C329.38 45.3282 329.41 45.4003 329.41 45.4756C329.41 45.5508 329.38 45.623 329.327 45.6762C329.273 45.7294 329.201 45.7593 329.126 45.7593Z" fill="#ADADAD"/>
<path d="M324.007 76.4651H317.604C317.528 76.4651 317.456 76.4352 317.403 76.382C317.349 76.3288 317.319 76.2566 317.319 76.1814C317.319 76.1062 317.349 76.034 317.403 75.9808C317.456 75.9276 317.528 75.8977 317.604 75.8977H324.007C324.083 75.8977 324.155 75.9276 324.208 75.9808C324.262 76.034 324.292 76.1062 324.292 76.1814C324.292 76.2566 324.262 76.3288 324.208 76.382C324.155 76.4352 324.083 76.4651 324.007 76.4651Z" fill="#ADADAD"/>
<path d="M329.126 81.5827H323.29C323.215 81.5827 323.143 81.5529 323.089 81.4997C323.036 81.4465 323.006 81.3743 323.006 81.2991C323.006 81.2238 323.036 81.1517 323.089 81.0985C323.143 81.0453 323.215 81.0154 323.29 81.0154H329.126C329.201 81.0154 329.273 81.0453 329.327 81.0985C329.38 81.1517 329.41 81.2238 329.41 81.2991C329.41 81.3743 329.38 81.4465 329.327 81.4997C329.273 81.5529 329.201 81.5827 329.126 81.5827Z" fill="#ADADAD"/>
<path d="M362.108 50.8769H327.271C327.196 50.8769 327.123 50.847 327.07 50.7938C327.017 50.7406 326.987 50.6685 326.987 50.5933C326.987 50.518 327.017 50.4459 327.07 50.3927C327.123 50.3395 327.196 50.3096 327.271 50.3096H362.108C362.184 50.3096 362.256 50.3395 362.309 50.3927C362.363 50.4459 362.393 50.518 362.393 50.5933C362.393 50.6685 362.363 50.7406 362.309 50.7938C362.256 50.847 362.184 50.8769 362.108 50.8769Z" fill="#ADADAD"/>
<path d="M392.866 50.8769H368.265C368.19 50.8769 368.118 50.847 368.064 50.7938C368.011 50.7406 367.981 50.6685 367.981 50.5933C367.981 50.518 368.011 50.4459 368.064 50.3927C368.118 50.3395 368.19 50.3096 368.265 50.3096H392.866C392.941 50.3096 393.014 50.3395 393.067 50.3927C393.12 50.4459 393.15 50.518 393.15 50.5933C393.15 50.6685 393.12 50.7406 393.067 50.7938C393.014 50.847 392.941 50.8769 392.866 50.8769Z" fill="#0C8234"/>
<path d="M406.068 50.8769H398.528C398.452 50.8769 398.38 50.847 398.327 50.7938C398.273 50.7406 398.243 50.6685 398.243 50.5933C398.243 50.518 398.273 50.4459 398.327 50.3927C398.38 50.3395 398.452 50.3096 398.528 50.3096H406.068C406.144 50.3096 406.216 50.3395 406.269 50.3927C406.323 50.4459 406.353 50.518 406.353 50.5933C406.353 50.6685 406.323 50.7406 406.269 50.7938C406.216 50.847 406.144 50.8769 406.068 50.8769Z" fill="#ADADAD"/>
<path d="M379.168 61.1123H327.271C327.196 61.1123 327.123 61.0824 327.07 61.0292C327.017 60.976 326.987 60.9038 326.987 60.8286C326.987 60.7534 327.017 60.6812 327.07 60.628C327.123 60.5748 327.196 60.5449 327.271 60.5449H379.168C379.244 60.5449 379.316 60.5748 379.37 60.628C379.423 60.6812 379.453 60.7534 379.453 60.8286C379.453 60.9038 379.423 60.976 379.37 61.0292C379.316 61.0824 379.244 61.1123 379.168 61.1123Z" fill="#ADADAD"/>
<path d="M392.866 61.1123H385.325C385.25 61.1123 385.178 61.0824 385.124 61.0292C385.071 60.976 385.041 60.9038 385.041 60.8286C385.041 60.7534 385.071 60.6812 385.124 60.628C385.178 60.5748 385.25 60.5449 385.325 60.5449H392.866C392.941 60.5449 393.014 60.5748 393.067 60.628C393.12 60.6812 393.15 60.7534 393.15 60.8286C393.15 60.9038 393.12 60.976 393.067 61.0292C393.014 61.0824 392.941 61.1123 392.866 61.1123Z" fill="#367CFF"/>
<path d="M333.675 55.9946H327.271C327.196 55.9946 327.123 55.9647 327.07 55.9115C327.017 55.8583 326.987 55.7862 326.987 55.7109C326.987 55.6357 327.017 55.5635 327.07 55.5103C327.123 55.4571 327.196 55.4272 327.271 55.4272H333.675C333.75 55.4272 333.823 55.4571 333.876 55.5103C333.929 55.5635 333.959 55.6357 333.959 55.7109C333.959 55.7862 333.929 55.8583 333.876 55.9115C333.823 55.9647 333.75 55.9946 333.675 55.9946Z" fill="#0C8234"/>
<path d="M375.806 55.9946H339.832C339.756 55.9946 339.684 55.9647 339.631 55.9115C339.577 55.8583 339.547 55.7862 339.547 55.7109C339.547 55.6357 339.577 55.5635 339.631 55.5103C339.684 55.4571 339.756 55.4272 339.832 55.4272H375.806C375.881 55.4272 375.954 55.4571 376.007 55.5103C376.06 55.5635 376.09 55.6357 376.09 55.7109C376.09 55.7862 376.06 55.8583 376.007 55.9115C375.954 55.9647 375.881 55.9946 375.806 55.9946Z" fill="#367CFF"/>
<path d="M406.118 55.9946H382.653C382.577 55.9946 382.505 55.9647 382.452 55.9115C382.398 55.8583 382.368 55.7862 382.368 55.7109C382.368 55.6357 382.398 55.5635 382.452 55.5103C382.505 55.4571 382.577 55.4272 382.653 55.4272H406.117C406.192 55.4272 406.264 55.4571 406.318 55.5103C406.371 55.5635 406.401 55.6357 406.401 55.7109C406.401 55.7862 406.371 55.8583 406.318 55.9115C406.264 55.9647 406.192 55.9946 406.117 55.9946H406.118Z" fill="#1C1541"/>
<path d="M362.108 66.23H327.271C327.196 66.23 327.123 66.2001 327.07 66.1469C327.017 66.0937 326.987 66.0215 326.987 65.9463C326.987 65.871 327.017 65.7989 327.07 65.7457C327.123 65.6925 327.196 65.6626 327.271 65.6626H362.108C362.184 65.6626 362.256 65.6925 362.309 65.7457C362.363 65.7989 362.393 65.871 362.393 65.9463C362.393 66.0215 362.363 66.0937 362.309 66.1469C362.256 66.2001 362.184 66.23 362.108 66.23Z" fill="#ADADAD"/>
<path d="M381.493 66.23H368.265C368.19 66.23 368.118 66.2001 368.064 66.1469C368.011 66.0937 367.981 66.0215 367.981 65.9463C367.981 65.871 368.011 65.7989 368.064 65.7457C368.118 65.6925 368.19 65.6626 368.265 65.6626H381.493C381.568 65.6626 381.64 65.6925 381.694 65.7457C381.747 65.7989 381.777 65.871 381.777 65.9463C381.777 66.0215 381.747 66.0937 381.694 66.1469C381.64 66.2001 381.568 66.23 381.493 66.23Z" fill="#0C8234"/>
<path d="M406.068 66.23H387.154C387.079 66.23 387.007 66.2001 386.953 66.1469C386.9 66.0937 386.87 66.0215 386.87 65.9463C386.87 65.871 386.9 65.7989 386.953 65.7457C387.007 65.6925 387.079 65.6626 387.154 65.6626H406.068C406.144 65.6626 406.216 65.6925 406.269 65.7457C406.323 65.7989 406.353 65.871 406.353 65.9463C406.353 66.0215 406.323 66.0937 406.269 66.1469C406.216 66.2001 406.144 66.23 406.068 66.23Z" fill="#ADADAD"/>
<path d="M333.675 71.3474H327.271C327.196 71.3474 327.123 71.3175 327.07 71.2643C327.017 71.2111 326.987 71.1389 326.987 71.0637C326.987 70.9885 327.017 70.9163 327.07 70.8631C327.123 70.8099 327.196 70.78 327.271 70.78H333.675C333.75 70.78 333.823 70.8099 333.876 70.8631C333.929 70.9163 333.959 70.9885 333.959 71.0637C333.959 71.1389 333.929 71.2111 333.876 71.2643C333.823 71.3175 333.75 71.3474 333.675 71.3474Z" fill="#367CFF"/>
<path d="M375.806 71.3474H339.832C339.756 71.3474 339.684 71.3175 339.631 71.2643C339.577 71.2111 339.547 71.1389 339.547 71.0637C339.547 70.9885 339.577 70.9163 339.631 70.8631C339.684 70.8099 339.756 70.78 339.832 70.78H375.806C375.881 70.78 375.954 70.8099 376.007 70.8631C376.06 70.9163 376.09 70.9885 376.09 71.0637C376.09 71.1389 376.06 71.2111 376.007 71.2643C375.954 71.3175 375.881 71.3474 375.806 71.3474Z" fill="#0C8234"/>
<path d="M360.971 91.8181H326.134C326.058 91.8181 325.986 91.7882 325.933 91.735C325.879 91.6818 325.849 91.6097 325.849 91.5344C325.849 91.4592 325.879 91.387 325.933 91.3338C325.986 91.2806 326.058 91.2507 326.134 91.2507H360.971C361.046 91.2507 361.119 91.2806 361.172 91.3338C361.225 91.387 361.255 91.4592 361.255 91.5344C361.255 91.6097 361.225 91.6818 361.172 91.735C361.119 91.7882 361.046 91.8181 360.971 91.8181Z" fill="#ADADAD"/>
<path d="M391.729 91.8181H367.128C367.053 91.8181 366.98 91.7882 366.927 91.735C366.874 91.6818 366.844 91.6097 366.844 91.5344C366.844 91.4592 366.874 91.387 366.927 91.3338C366.98 91.2806 367.053 91.2507 367.128 91.2507H391.729C391.804 91.2507 391.876 91.2806 391.93 91.3338C391.983 91.387 392.013 91.4592 392.013 91.5344C392.013 91.6097 391.983 91.6818 391.93 91.735C391.876 91.7882 391.804 91.8181 391.729 91.8181Z" fill="#367CFF"/>
<path d="M343.911 86.7004H326.134C326.058 86.7004 325.986 86.6705 325.933 86.6173C325.879 86.5641 325.849 86.492 325.849 86.4167C325.849 86.3415 325.879 86.2694 325.933 86.2161C325.986 86.1629 326.058 86.1331 326.134 86.1331H343.911C343.986 86.1331 344.059 86.1629 344.112 86.2161C344.165 86.2694 344.195 86.3415 344.195 86.4167C344.195 86.492 344.165 86.5641 344.112 86.6173C344.059 86.6705 343.986 86.7004 343.911 86.7004Z" fill="#0C8234"/>
<path d="M374.669 86.7004H350.068C349.992 86.7004 349.92 86.6705 349.867 86.6173C349.814 86.5641 349.784 86.492 349.784 86.4167C349.784 86.3415 349.814 86.2694 349.867 86.2161C349.92 86.1629 349.992 86.1331 350.068 86.1331H374.669C374.744 86.1331 374.816 86.1629 374.87 86.2161C374.923 86.2694 374.953 86.3415 374.953 86.4167C374.953 86.492 374.923 86.5641 374.87 86.6173C374.816 86.6705 374.744 86.7004 374.669 86.7004Z" fill="#367CFF"/>
<path d="M404.98 86.7004H381.515C381.44 86.7004 381.368 86.6705 381.314 86.6173C381.261 86.5641 381.231 86.492 381.231 86.4167C381.231 86.3415 381.261 86.2694 381.314 86.2161C381.368 86.1629 381.44 86.1331 381.515 86.1331H404.979C405.055 86.1331 405.127 86.1629 405.18 86.2161C405.234 86.2694 405.264 86.3415 405.264 86.4167C405.264 86.492 405.234 86.5641 405.18 86.6173C405.127 86.6705 405.055 86.7004 404.979 86.7004H404.98Z" fill="#ADADAD"/>
<path d="M378.031 102.054H326.134C326.058 102.054 325.986 102.024 325.933 101.971C325.879 101.918 325.849 101.845 325.849 101.77C325.849 101.695 325.879 101.623 325.933 101.57C325.986 101.516 326.058 101.487 326.134 101.487H378.031C378.107 101.487 378.179 101.516 378.232 101.57C378.286 101.623 378.315 101.695 378.315 101.77C378.315 101.845 378.286 101.918 378.232 101.971C378.179 102.024 378.107 102.054 378.031 102.054Z" fill="#367CFF"/>
<path d="M391.729 102.054H384.188C384.113 102.054 384.04 102.024 383.987 101.971C383.934 101.918 383.904 101.845 383.904 101.77C383.904 101.695 383.934 101.623 383.987 101.57C384.04 101.516 384.113 101.487 384.188 101.487H391.729C391.804 101.487 391.876 101.516 391.93 101.57C391.983 101.623 392.013 101.695 392.013 101.77C392.013 101.845 391.983 101.918 391.93 101.971C391.876 102.024 391.804 102.054 391.729 102.054Z" fill="#ADADAD"/>
<path d="M332.537 96.9363H326.134C326.058 96.9363 325.986 96.9064 325.933 96.8532C325.879 96.8 325.849 96.7278 325.849 96.6526C325.849 96.5773 325.879 96.5052 325.933 96.452C325.986 96.3988 326.058 96.3689 326.134 96.3689H332.537C332.613 96.3689 332.685 96.3988 332.739 96.452C332.792 96.5052 332.822 96.5773 332.822 96.6526C332.822 96.7278 332.792 96.8 332.739 96.8532C332.685 96.9064 332.613 96.9363 332.537 96.9363Z" fill="#367CFF"/>
<path d="M374.669 96.9363H338.694C338.619 96.9363 338.547 96.9064 338.493 96.8532C338.44 96.8 338.41 96.7278 338.41 96.6526C338.41 96.5773 338.44 96.5052 338.493 96.452C338.547 96.3988 338.619 96.3689 338.694 96.3689H374.669C374.744 96.3689 374.816 96.3988 374.87 96.452C374.923 96.5052 374.953 96.5773 374.953 96.6526C374.953 96.7278 374.923 96.8 374.87 96.8532C374.816 96.9064 374.744 96.9363 374.669 96.9363Z" fill="#ADADAD"/>
<path d="M404.98 96.9363H381.515C381.44 96.9363 381.368 96.9064 381.314 96.8532C381.261 96.8 381.231 96.7278 381.231 96.6526C381.231 96.5773 381.261 96.5052 381.314 96.452C381.368 96.3988 381.44 96.3689 381.515 96.3689H404.979C405.055 96.3689 405.127 96.3988 405.18 96.452C405.234 96.5052 405.264 96.5773 405.264 96.6526C405.264 96.7278 405.234 96.8 405.18 96.8532C405.127 96.9064 405.055 96.9363 404.979 96.9363H404.98Z" fill="#0C8234"/>
<path d="M360.971 107.172H326.134C326.058 107.172 325.986 107.142 325.933 107.089C325.879 107.035 325.849 106.963 325.849 106.888C325.849 106.813 325.879 106.741 325.933 106.687C325.986 106.634 326.058 106.604 326.134 106.604H360.971C361.046 106.604 361.119 106.634 361.172 106.687C361.225 106.741 361.255 106.813 361.255 106.888C361.255 106.963 361.225 107.035 361.172 107.089C361.119 107.142 361.046 107.172 360.971 107.172Z" fill="#0C8234"/>
<path d="M380.355 107.172H367.128C367.053 107.172 366.98 107.142 366.927 107.089C366.874 107.035 366.844 106.963 366.844 106.888C366.844 106.813 366.874 106.741 366.927 106.687C366.98 106.634 367.053 106.604 367.128 106.604H380.355C380.431 106.604 380.503 106.634 380.556 106.687C380.61 106.741 380.64 106.813 380.64 106.888C380.64 106.963 380.61 107.035 380.556 107.089C380.503 107.142 380.431 107.172 380.355 107.172Z" fill="#ADADAD"/>
<path d="M404.931 107.172H386.017C385.942 107.172 385.869 107.142 385.816 107.089C385.763 107.035 385.733 106.963 385.733 106.888C385.733 106.813 385.763 106.741 385.816 106.687C385.869 106.634 385.942 106.604 386.017 106.604H404.931C405.006 106.604 405.079 106.634 405.132 106.687C405.185 106.741 405.215 106.813 405.215 106.888C405.215 106.963 405.185 107.035 405.132 107.089C405.079 107.142 405.006 107.172 404.931 107.172Z" fill="#367CFF"/>
<path d="M307.862 112.648C307.786 112.648 307.714 112.618 307.661 112.565C307.607 112.512 307.577 112.439 307.577 112.364V31.708C307.577 31.6328 307.607 31.5606 307.661 31.5074C307.714 31.4542 307.786 31.4243 307.862 31.4243C307.937 31.4243 308.009 31.4542 308.063 31.5074C308.116 31.5606 308.146 31.6328 308.146 31.708V112.364C308.146 112.439 308.116 112.512 308.063 112.565C308.009 112.618 307.937 112.648 307.862 112.648Z" fill="#1C1541"/>
<path d="M403.09 26.3162C405.609 26.3162 407.651 24.2785 407.651 21.7648C407.651 19.2511 405.609 17.2134 403.09 17.2134C400.57 17.2134 398.528 19.2511 398.528 21.7648C398.528 24.2785 400.57 26.3162 403.09 26.3162Z" fill="white"/>
<path d="M294.857 35.2517H282.544C282.469 35.2517 282.396 35.2218 282.343 35.1686C282.29 35.1154 282.26 35.0432 282.26 34.968C282.26 34.8928 282.29 34.8206 282.343 34.7674C282.396 34.7142 282.469 34.6843 282.544 34.6843H294.857C294.932 34.6843 295.005 34.7142 295.058 34.7674C295.111 34.8206 295.141 34.8928 295.141 34.968C295.141 35.0432 295.111 35.1154 295.058 35.1686C295.005 35.2218 294.932 35.2517 294.857 35.2517Z" fill="#ADADAD"/>
<path d="M291.147 40.8472H282.544C282.469 40.8472 282.396 40.8173 282.343 40.7641C282.29 40.7109 282.26 40.6387 282.26 40.5635C282.26 40.4882 282.29 40.4161 282.343 40.3629C282.396 40.3097 282.469 40.2798 282.544 40.2798H291.147C291.223 40.2798 291.295 40.3097 291.348 40.3629C291.402 40.4161 291.432 40.4882 291.432 40.5635C291.432 40.6387 291.402 40.7109 291.348 40.7641C291.295 40.8173 291.223 40.8472 291.147 40.8472Z" fill="#ADADAD"/>
<path d="M298.714 46.4424H282.544C282.469 46.4424 282.396 46.4125 282.343 46.3593C282.29 46.3061 282.26 46.2339 282.26 46.1587C282.26 46.0834 282.29 46.0113 282.343 45.9581C282.396 45.9049 282.469 45.875 282.544 45.875H298.714C298.789 45.875 298.861 45.9049 298.915 45.9581C298.968 46.0113 298.998 46.0834 298.998 46.1587C298.998 46.2339 298.968 46.3061 298.915 46.3593C298.861 46.4125 298.789 46.4424 298.714 46.4424Z" fill="#ADADAD"/>
<path d="M301.731 52.0378H288.231C288.155 52.0378 288.083 52.0079 288.03 51.9547C287.976 51.9015 287.946 51.8294 287.946 51.7541C287.946 51.6789 287.976 51.6067 288.03 51.5535C288.083 51.5003 288.155 51.4705 288.231 51.4705H301.731C301.806 51.4705 301.879 51.5003 301.932 51.5535C301.985 51.6067 302.015 51.6789 302.015 51.7541C302.015 51.8294 301.985 51.9015 301.932 51.9547C301.879 52.0079 301.806 52.0378 301.731 52.0378Z" fill="#ADADAD"/>
<path d="M295.203 57.6338H288.231C288.155 57.6338 288.083 57.6039 288.03 57.5507C287.976 57.4975 287.946 57.4253 287.946 57.3501C287.946 57.2749 287.976 57.2027 288.03 57.1495C288.083 57.0963 288.155 57.0664 288.231 57.0664H295.203C295.278 57.0664 295.35 57.0963 295.404 57.1495C295.457 57.2027 295.487 57.2749 295.487 57.3501C295.487 57.4253 295.457 57.4975 295.404 57.5507C295.35 57.6039 295.278 57.6338 295.203 57.6338Z" fill="#ADADAD"/>
<path d="M300.544 63.229H288.231C288.155 63.229 288.083 63.1991 288.03 63.1459C287.976 63.0927 287.946 63.0205 287.946 62.9453C287.946 62.8701 287.976 62.7979 288.03 62.7447C288.083 62.6915 288.155 62.6616 288.231 62.6616H300.544C300.619 62.6616 300.691 62.6915 300.745 62.7447C300.798 62.7979 300.828 62.8701 300.828 62.9453C300.828 63.0205 300.798 63.0927 300.745 63.1459C300.691 63.1991 300.619 63.229 300.544 63.229Z" fill="#ADADAD"/>
<path d="M292.038 68.8244H282.544C282.469 68.8244 282.396 68.7946 282.343 68.7414C282.29 68.6882 282.26 68.616 282.26 68.5408C282.26 68.4655 282.29 68.3934 282.343 68.3402C282.396 68.287 282.469 68.2571 282.544 68.2571H292.038C292.113 68.2571 292.186 68.287 292.239 68.3402C292.292 68.3934 292.322 68.4655 292.322 68.5408C292.322 68.616 292.292 68.6882 292.239 68.7414C292.186 68.7946 292.113 68.8244 292.038 68.8244Z" fill="#ADADAD"/>
<path d="M288.774 74.4192H282.544C282.469 74.4192 282.396 74.3893 282.343 74.3361C282.29 74.2829 282.26 74.2107 282.26 74.1355C282.26 74.0603 282.29 73.9881 282.343 73.9349C282.396 73.8817 282.469 73.8518 282.544 73.8518H288.774C288.85 73.8518 288.922 73.8817 288.975 73.9349C289.029 73.9881 289.059 74.0603 289.059 74.1355C289.059 74.2107 289.029 74.2829 288.975 74.3361C288.922 74.3893 288.85 74.4192 288.774 74.4192Z" fill="#ADADAD"/>
<path d="M235.373 0H35.0728V199.841H235.373V0Z" fill="#F4F4F4"/>
<path d="M35.0728 0H32.7771V199.841H35.0728V0Z" fill="#F4F4F4"/>
<path opacity="0.05" d="M35.0728 0H32.7771V199.841H35.0728V0Z" fill="#292A2E"/>
<path opacity="0.05" d="M83.5963 137.707V85.4216H126.524V115.798H193.019V169.583H221.28V199.841H193.019H187.574H44.7083V137.707H83.5963Z" fill="#292A2E"/>
<path opacity="0.34" d="M121.014 91.0986H89.7533V96.7757H121.014V91.0986Z" fill="#FFFFFA"/>
<path opacity="0.34" d="M121.014 102.862H89.7533V108.539H121.014V102.862Z" fill="#FFFFFA"/>
<path opacity="0.34" d="M121.014 114.626H89.7533V120.303H121.014V114.626Z" fill="#FFFFFA"/>
<path opacity="0.34" d="M56.0129 143.217H50.2512V148.894H56.0129V143.217Z" fill="#FFFFFA"/>
<path opacity="0.34" d="M56.0129 154.98H50.2512V160.658H56.0129V154.98Z" fill="#FFFFFA"/>
<path opacity="0.34" d="M56.0129 166.745H50.2512V172.422H56.0129V166.745Z" fill="#FFFFFA"/>
<path opacity="0.34" d="M66.6721 143.217H60.9103V148.894H66.6721V143.217Z" fill="#FFFFFA"/>
<path opacity="0.34" d="M66.6721 154.98H60.9103V160.658H66.6721V154.98Z" fill="#FFFFFA"/>
<path opacity="0.34" d="M66.6721 166.745H60.9103V172.422H66.6721V166.745Z" fill="#FFFFFA"/>
<path opacity="0.34" d="M77.0435 143.217H71.2817V148.894H77.0435V143.217Z" fill="#FFFFFA"/>
<path opacity="0.34" d="M77.0435 154.98H71.2817V160.658H77.0435V154.98Z" fill="#FFFFFA"/>
<path opacity="0.34" d="M77.0435 166.745H71.2817V172.422H77.0435V166.745Z" fill="#FFFFFA"/>
<path d="M35.0728 98.7995H75.3768V0H78.7097V98.7995H187.574V0H190.907V98.7995H235.373V102.125H190.907V199.841H187.574V102.125H78.7097V199.841H75.3768V102.125H35.0728V98.7995Z" fill="white"/>
<path d="M243.352 199.6H27.0938V206.246H243.352V199.6Z" fill="#F4F4F4"/>
<path opacity="0.1" d="M243.352 199.6H27.0938V206.246H243.352V199.6Z" fill="#292A2E"/>
<path opacity="0.1" d="M27.0938 199.6H23.9712V206.246H27.0938V199.6Z" fill="#292A2E"/>
<path opacity="0.1" d="M27.0938 199.6H23.9712V206.246H27.0938V199.6Z" fill="#292A2E"/>
<path d="M32.7771 8.5083L235.373 8.5083V3.56711L32.7771 3.56711V8.5083Z" fill="white"/>
<path d="M32.7771 17.7383L235.373 17.7383V12.7971L32.7771 12.7971V17.7383Z" fill="white"/>
<path d="M32.7771 26.9675L235.373 26.9675V22.0263L32.7771 22.0263V26.9675Z" fill="white"/>
<path d="M32.7771 36.197L235.373 36.197V31.2558L32.7771 31.2558V36.197Z" fill="white"/>
<path d="M32.7771 45.4258L235.373 45.4258V40.4846L32.7771 40.4846V45.4258Z" fill="white"/>
<path d="M54.295 50.9988H57.3311L57.3311 -9.15527e-05H54.295L54.295 50.9988Z" fill="white"/>
<path d="M55.5557 58.323C57.8594 58.323 59.7269 56.4598 59.7269 54.1614C59.7269 51.863 57.8594 49.9998 55.5557 49.9998C53.252 49.9998 51.3845 51.863 51.3845 54.1614C51.3845 56.4598 53.252 58.323 55.5557 58.323Z" fill="white"/>
<path d="M36.0767 477.861L34.9599 477.646L52.4158 304.582L53.5327 304.796L36.0767 477.861Z" fill="#AEAEAE"/>
<path d="M101.075 477.861L99.9578 477.646L117.413 304.582L118.53 304.796L101.075 477.861Z" fill="#AEAEAE"/>
<path d="M244.748 477.861L245.865 477.646L228.409 304.582L227.292 304.796L244.748 477.861Z" fill="#AEAEAE"/>
<path d="M179.75 477.861L180.867 477.646L163.412 304.582L162.295 304.796L179.75 477.861Z" fill="#AEAEAE"/>
<path d="M156.601 228.416L155.474 228.566L165.671 304.766L166.799 304.616L156.601 228.416Z" fill="#494949"/>
<path d="M39.555 228.415L38.4277 228.565L48.625 304.765L49.7524 304.615L39.555 228.415Z" fill="#AEAEAE"/>
<path d="M166.7 299.109H52.2156C49.1268 299.109 46.6227 301.608 46.6227 304.689V304.69C46.6227 307.772 49.1268 310.27 52.2156 310.27H166.7C169.789 310.27 172.293 307.772 172.293 304.69V304.689C172.293 301.608 169.789 299.109 166.7 299.109Z" fill="#AEAEAE"/>
<path opacity="0.8" d="M166.7 299.109H52.2156C49.1268 299.109 46.6227 301.608 46.6227 304.689V304.69C46.6227 307.772 49.1268 310.27 52.2156 310.27H166.7C169.789 310.27 172.293 307.772 172.293 304.69V304.689C172.293 301.608 169.789 299.109 166.7 299.109Z" fill="white"/>
<path d="M166.7 310.837H52.2162C51.407 310.837 50.6058 310.678 49.8583 310.369C49.1107 310.06 48.4315 309.607 47.8593 309.036C47.2872 308.465 46.8333 307.788 46.5236 307.042C46.214 306.296 46.0546 305.497 46.0546 304.689C46.0546 303.882 46.214 303.083 46.5236 302.337C46.8333 301.591 47.2872 300.913 47.8593 300.343C48.4315 299.772 49.1107 299.319 49.8583 299.01C50.6058 298.701 51.407 298.542 52.2162 298.542H166.7C167.51 298.542 168.311 298.701 169.058 299.01C169.806 299.319 170.485 299.772 171.057 300.343C171.629 300.913 172.083 301.591 172.393 302.337C172.703 303.083 172.862 303.882 172.862 304.689C172.862 305.497 172.703 306.296 172.393 307.042C172.083 307.788 171.629 308.465 171.057 309.036C170.485 309.607 169.806 310.06 169.058 310.369C168.311 310.678 167.51 310.837 166.7 310.837ZM52.2162 299.677C51.5564 299.677 50.9031 299.806 50.2935 300.058C49.6839 300.31 49.1301 300.679 48.6635 301.145C48.197 301.61 47.8269 302.163 47.5744 302.771C47.3219 303.379 47.192 304.031 47.192 304.689C47.192 305.348 47.3219 306 47.5744 306.608C47.8269 307.216 48.197 307.768 48.6635 308.234C49.1301 308.699 49.6839 309.069 50.2935 309.321C50.9031 309.572 51.5564 309.702 52.2162 309.702H166.7C167.36 309.702 168.014 309.572 168.623 309.321C169.233 309.069 169.786 308.699 170.253 308.234C170.72 307.768 171.09 307.216 171.342 306.608C171.595 306 171.725 305.348 171.725 304.689C171.725 304.031 171.595 303.379 171.342 302.771C171.09 302.163 170.72 301.61 170.253 301.145C169.786 300.679 169.233 300.31 168.623 300.058C168.014 299.806 167.36 299.677 166.7 299.677H52.2162Z" fill="#AEAEAE"/>
<path d="M229.536 299.109H115.051C111.963 299.109 109.459 301.608 109.459 304.689V304.69C109.459 307.772 111.963 310.27 115.051 310.27H229.536C232.625 310.27 235.129 307.772 235.129 304.69V304.689C235.129 301.608 232.625 299.109 229.536 299.109Z" fill="white"/>
<path d="M229.536 310.837H115.051C114.242 310.837 113.441 310.678 112.694 310.369C111.946 310.06 111.267 309.607 110.695 309.036C110.122 308.465 109.669 307.788 109.359 307.042C109.049 306.296 108.89 305.497 108.89 304.689C108.89 303.882 109.049 303.083 109.359 302.337C109.669 301.591 110.122 300.913 110.695 300.343C111.267 299.772 111.946 299.319 112.694 299.01C113.441 298.701 114.242 298.542 115.051 298.542H229.536C230.345 298.542 231.147 298.701 231.894 299.01C232.642 299.319 233.321 299.772 233.893 300.343C234.465 300.913 234.919 301.591 235.229 302.337C235.538 303.083 235.698 303.882 235.698 304.689C235.698 305.497 235.538 306.296 235.229 307.042C234.919 307.788 234.465 308.465 233.893 309.036C233.321 309.607 232.642 310.06 231.894 310.369C231.147 310.678 230.345 310.837 229.536 310.837ZM115.051 299.677C114.392 299.677 113.738 299.806 113.129 300.058C112.519 300.31 111.965 300.679 111.499 301.145C111.032 301.61 110.662 302.163 110.41 302.771C110.157 303.379 110.027 304.031 110.027 304.689C110.027 305.348 110.157 306 110.41 306.608C110.662 307.216 111.032 307.768 111.499 308.234C111.965 308.699 112.519 309.069 113.129 309.321C113.738 309.572 114.392 309.702 115.051 309.702H229.536C230.196 309.702 230.849 309.572 231.459 309.321C232.068 309.069 232.622 308.699 233.089 308.234C233.555 307.768 233.925 307.216 234.178 306.608C234.43 306 234.56 305.348 234.56 304.689C234.56 304.031 234.43 303.379 234.178 302.771C233.925 302.163 233.555 301.61 233.089 301.145C232.622 300.679 232.068 300.31 231.459 300.058C230.849 299.806 230.196 299.677 229.536 299.677H115.051Z" fill="#AEAEAE"/>
<path d="M150.329 228.49H39.2983C37.4829 228.49 35.7296 227.83 34.3656 226.635C33.0016 225.44 32.1201 223.79 31.8856 221.994L24.5413 165.724C24.404 164.672 24.4932 163.603 24.803 162.588C25.1128 161.573 25.636 160.636 26.3377 159.839C27.0393 159.042 27.9034 158.403 28.872 157.966C29.8407 157.529 30.8918 157.303 31.955 157.303H142.985C144.8 157.303 146.554 157.962 147.918 159.157C149.282 160.352 150.163 162.001 150.398 163.797L157.742 220.069C157.879 221.121 157.79 222.19 157.48 223.204C157.17 224.219 156.647 225.156 155.946 225.953C155.244 226.75 154.381 227.389 153.412 227.826C152.444 228.263 151.393 228.49 150.329 228.49Z" fill="#AEAEAE"/>
<path opacity="0.8" d="M150.329 228.49H39.2983C37.4829 228.49 35.7296 227.83 34.3656 226.635C33.0016 225.44 32.1201 223.79 31.8856 221.994L24.5413 165.724C24.404 164.672 24.4932 163.603 24.803 162.588C25.1128 161.573 25.636 160.636 26.3377 159.839C27.0393 159.042 27.9034 158.403 28.872 157.966C29.8407 157.529 30.8918 157.303 31.955 157.303H142.985C144.8 157.303 146.554 157.962 147.918 159.157C149.282 160.352 150.163 162.001 150.398 163.797L157.742 220.069C157.879 221.121 157.79 222.19 157.48 223.204C157.17 224.219 156.647 225.156 155.946 225.953C155.244 226.75 154.381 227.389 153.412 227.826C152.444 228.263 151.393 228.49 150.329 228.49Z" fill="white"/>
<path d="M150.33 229.057H39.2983C37.346 229.053 35.4616 228.342 33.9947 227.057C32.5278 225.771 31.578 223.999 31.3215 222.068L23.9777 165.797C23.8298 164.665 23.9257 163.514 24.259 162.422C24.5922 161.33 25.1552 160.322 25.9102 159.464C26.6652 158.606 27.595 157.919 28.6374 157.449C29.6798 156.978 30.8109 156.735 31.955 156.735H142.985C144.937 156.739 146.822 157.45 148.289 158.735C149.755 160.021 150.705 161.793 150.961 163.724L158.306 219.996C158.453 221.128 158.358 222.278 158.024 223.37C157.691 224.462 157.128 225.47 156.373 226.328C155.618 227.185 154.689 227.872 153.647 228.343C152.604 228.814 151.474 229.057 150.33 229.057ZM31.955 157.87C30.9728 157.87 30.0018 158.079 29.107 158.483C28.2121 158.887 27.414 159.477 26.7658 160.213C26.1177 160.95 25.6344 161.815 25.3482 162.753C25.0621 163.69 24.9797 164.678 25.1065 165.65L32.4509 221.921C32.6709 223.579 33.4863 225.101 34.7457 226.205C36.0052 227.308 37.6232 227.919 39.2994 227.922H150.33C151.312 227.922 152.282 227.713 153.177 227.309C154.072 226.904 154.87 226.314 155.518 225.578C156.166 224.842 156.649 223.976 156.935 223.039C157.221 222.101 157.303 221.114 157.176 220.142L149.834 163.871C149.614 162.213 148.798 160.691 147.539 159.588C146.279 158.484 144.661 157.874 142.985 157.87L31.955 157.87Z" fill="#AEAEAE"/>
<path d="M156.608 228.49H45.5764C43.7611 228.489 42.0079 227.83 40.644 226.635C39.2801 225.44 38.3987 223.79 38.1643 221.994L30.8177 165.724C30.6804 164.672 30.7696 163.603 31.0794 162.588C31.3891 161.573 31.9122 160.636 32.6137 159.839C33.3153 159.042 34.1792 158.404 35.1477 157.966C36.1162 157.529 37.1672 157.303 38.2303 157.303H149.264C151.079 157.303 152.832 157.962 154.196 159.157C155.56 160.352 156.442 162.001 156.676 163.797L164.02 220.069C164.158 221.121 164.068 222.19 163.759 223.204C163.449 224.219 162.926 225.156 162.224 225.953C161.523 226.75 160.659 227.389 159.69 227.826C158.722 228.263 157.671 228.49 156.608 228.49Z" fill="white"/>
<path d="M156.608 229.057H45.5764C43.6242 229.053 41.7398 228.342 40.273 227.056C38.8062 225.771 37.8565 223.999 37.6002 222.068L30.2558 165.797C30.1082 164.665 30.2042 163.515 30.5375 162.423C30.8707 161.331 31.4336 160.322 32.1886 159.465C32.9435 158.607 33.8731 157.92 34.9154 157.449C35.9576 156.978 37.0885 156.735 38.2326 156.735H149.263C151.216 156.739 153.1 157.45 154.567 158.735C156.034 160.021 156.984 161.793 157.24 163.724L164.584 219.996C164.732 221.128 164.636 222.278 164.303 223.37C163.969 224.461 163.406 225.47 162.651 226.327C161.896 227.185 160.967 227.872 159.925 228.343C158.882 228.814 157.752 229.057 156.608 229.057ZM38.2326 157.87C37.2505 157.87 36.2798 158.079 35.3852 158.484C34.4907 158.888 33.6928 159.478 33.0449 160.215C32.397 160.951 31.9139 161.817 31.6279 162.754C31.3419 163.691 31.2596 164.679 31.3864 165.65L38.7279 221.921C38.9481 223.579 39.7636 225.101 41.023 226.205C42.2824 227.308 43.9002 227.918 45.5764 227.922H156.608C157.59 227.922 158.561 227.713 159.456 227.309C160.351 226.905 161.149 226.315 161.797 225.579C162.445 224.842 162.928 223.976 163.214 223.039C163.501 222.101 163.583 221.114 163.456 220.142L156.112 163.871C155.892 162.213 155.076 160.691 153.817 159.588C152.557 158.484 150.939 157.874 149.263 157.87L38.2326 157.87Z" fill="#AEAEAE"/>
<path d="M242.915 241.338L241.784 241.452L265.757 478.242L266.889 478.128L242.915 241.338Z" fill="#AEAEAE"/>
<path d="M144.642 70.9155C144.642 70.9155 152.02 65.3593 153.848 52.5697C155.264 42.6675 146.108 49.0827 146.108 49.0827C146.108 49.0827 147.058 41.9424 141.843 42.651C136.629 43.3597 133.711 50.8602 133.711 50.8602" fill="#501800"/>
<path d="M114.895 43.4868C114.895 43.4868 89.0228 46.2561 98.3758 81.2309L100.665 81.3841L105.312 81.695" fill="#501800"/>
<path d="M140.309 117.759C140.195 117.744 138.933 138.638 114.602 136.819C97.7576 135.56 91.7519 117.729 91.3658 117.729C93.1821 117.345 95.4261 116.76 96.3183 116.56C98.2622 116.109 100.023 115.079 101.365 113.606C102.708 112.134 103.569 110.288 103.835 108.315C104.328 105.353 103.494 90.1997 103.749 87.2029L129.605 92.9605C129.244 99.2901 126.715 113.963 135.576 116.56C137.053 116.989 138.641 117.384 140.309 117.759Z" fill="#FFA07B"/>
<path opacity="0.52" d="M129.968 110.563C129.563 109.261 129.302 107.918 129.19 106.559C128.907 103.458 128.964 100.336 129.361 97.2471C124.106 96.5396 119.155 94.3756 115.071 91.001C114.591 92.77 111.951 100.5 112.682 102.181C114.061 105.359 120.554 110.563 129.968 110.563Z" fill="#191047"/>
<path d="M124.632 106.428C114.431 105.515 102.222 99.0847 102.047 85.2699L101.887 72.8049C101.712 58.9906 108.841 47.6995 121.878 47.5338C134.915 47.3687 144.803 58.4437 144.978 72.2585L145.049 77.7767C145.04 79.6719 144.901 81.5643 144.634 83.4407C143.966 88.4052 142.928 95.9529 139.552 101.059C136.363 105.879 131.148 107.01 124.632 106.428Z" fill="#FFA07B"/>
<path d="M129.364 93.8015C131.469 93.8967 133.567 93.497 135.489 92.6345C135.529 92.6176 135.565 92.593 135.595 92.5622C135.625 92.5314 135.649 92.495 135.665 92.455C135.681 92.415 135.689 92.3723 135.689 92.3292C135.688 92.2861 135.679 92.2435 135.662 92.2038C135.645 92.1642 135.621 92.1283 135.59 92.0981C135.559 92.068 135.523 92.0442 135.483 92.0281C135.442 92.0121 135.4 92.004 135.356 92.0045C135.313 92.0049 135.27 92.0139 135.231 92.0308C131.091 93.7925 127.331 93.5343 124.359 91.2847C124.3 91.2372 124.237 91.1931 124.172 91.1525C124.098 91.118 124.013 91.1126 123.934 91.1375C123.856 91.1623 123.79 91.2156 123.749 91.2868C123.708 91.358 123.695 91.442 123.713 91.5221C123.731 91.6023 123.778 91.6729 123.845 91.7199C123.869 91.7346 123.907 91.7647 123.959 91.8061C125.522 92.9932 127.404 93.688 129.364 93.8015Z" fill="#191047"/>
<path d="M129.266 96.9124C129.646 96.9358 130.028 96.9267 130.407 96.8852C130.493 96.876 130.573 96.8328 130.628 96.7652C130.683 96.6975 130.708 96.6109 130.699 96.5243C130.69 96.4378 130.647 96.3585 130.579 96.3038C130.511 96.2491 130.424 96.2235 130.337 96.2327C128.059 96.4744 126.971 95.4327 126.925 95.3879C126.864 95.3263 126.78 95.2916 126.693 95.2915C126.606 95.2914 126.522 95.3259 126.46 95.3873C126.398 95.4488 126.364 95.5322 126.364 95.6193C126.363 95.7063 126.398 95.7898 126.46 95.8514C127.244 96.518 128.236 96.8929 129.266 96.9124Z" fill="#191047"/>
<path d="M140.673 80.4332C141.56 80.4332 142.279 79.7159 142.279 78.831C142.279 77.9461 141.56 77.2288 140.673 77.2288C139.786 77.2288 139.067 77.9461 139.067 78.831C139.067 79.7159 139.786 80.4332 140.673 80.4332Z" fill="#191047"/>
<path d="M124.984 79.4511C125.871 79.4511 126.59 78.7337 126.59 77.8488C126.59 76.9639 125.871 76.2466 124.984 76.2466C124.098 76.2466 123.379 76.9639 123.379 77.8488C123.379 78.7337 124.098 79.4511 124.984 79.4511Z" fill="#191047"/>
<path d="M102.91 89.4684C98.9479 89.5189 95.6826 85.3306 95.6308 81.3777C95.5791 77.4249 98.7642 75.2042 102.726 75.1543L104.801 77.7767L106.315 89.4253L102.91 89.4684Z" fill="#FFA07B"/>
<path d="M106.849 83.1169C106.849 83.1169 108.187 63.5694 114.128 62.362C118.085 61.5581 127.68 67.158 136.567 65.4667C140.456 64.7291 144.147 65.6868 144.522 67.5194C144.671 68.2451 147.093 57.8174 141.004 49.9061C136.157 43.6055 120.292 41.8268 113.074 43.892C93.0894 49.6122 101.908 76.0146 101.908 76.0146L102.799 82.7538L106.849 83.1169Z" fill="#501800"/>
<path d="M131.757 89.1872H131.782C133.059 89.1741 135.199 89.0107 135.19 88.0576C135.182 87.2678 132.93 78.7669 132.672 77.8001C132.648 77.7199 132.593 77.6522 132.519 77.6114C132.446 77.5706 132.359 77.5599 132.278 77.5814C132.197 77.6029 132.127 77.655 132.083 77.7268C132.04 77.7986 132.025 77.8845 132.044 77.9664C133.044 81.7314 134.534 87.5276 134.54 88.0655C134.417 88.2924 133.098 88.5262 131.776 88.5398C131.693 88.5416 131.613 88.5752 131.554 88.6338C131.495 88.6924 131.46 88.7715 131.458 88.8546C131.455 88.9378 131.485 89.0187 131.541 89.0807C131.596 89.1427 131.674 89.181 131.757 89.1878V89.1872Z" fill="#191047"/>
<path d="M136.115 70.1423C137.457 69.7738 138.873 69.7738 140.215 70.1423C140.874 70.3191 141.503 70.5937 142.08 70.9571C142.651 71.3128 143.174 71.739 143.638 72.2257C143.727 72.3116 143.778 72.4287 143.782 72.5521C143.785 72.6754 143.74 72.7952 143.656 72.8857C143.572 72.9762 143.455 73.0302 143.332 73.0362C143.208 73.0422 143.087 72.9998 142.995 72.9179L142.966 72.8929C142.536 72.4965 142.059 72.1555 141.544 71.8779C141.039 71.602 140.495 71.4038 139.931 71.2901C138.82 71.0576 137.667 71.122 136.589 71.4768L136.543 71.4927C136.365 71.5554 136.17 71.5451 136 71.4639C135.829 71.3828 135.698 71.2375 135.635 71.06C135.572 70.8826 135.583 70.6874 135.664 70.5175C135.745 70.3477 135.891 70.217 136.069 70.1542L136.115 70.1423Z" fill="#191047"/>
<path d="M126.614 70.9475C125.593 70.4524 124.459 70.2354 123.327 70.3182C122.752 70.3555 122.187 70.4795 121.649 70.6859C121.103 70.8929 120.585 71.1673 120.107 71.5029L120.076 71.5233C119.974 71.5889 119.85 71.6126 119.73 71.5894C119.611 71.5661 119.505 71.4978 119.434 71.3986C119.364 71.2994 119.334 71.177 119.352 71.0567C119.37 70.9365 119.433 70.8276 119.529 70.7529C120.054 70.332 120.629 69.979 121.243 69.7021C121.863 69.4192 122.523 69.2307 123.2 69.1427C124.579 68.955 125.983 69.1428 127.264 69.6862C127.438 69.7614 127.574 69.9023 127.643 70.0779C127.713 70.2535 127.709 70.4493 127.634 70.6224C127.558 70.7954 127.417 70.9315 127.241 71.0006C127.065 71.0698 126.869 71.0664 126.696 70.9911L126.656 70.9724L126.614 70.9475Z" fill="#191047"/>
<path d="M134.205 56.6866C137.138 56.0753 138.784 52.0887 137.882 47.7822C136.981 43.4758 133.872 40.4803 130.94 41.0916C128.007 41.7029 126.361 45.6895 127.263 49.9959C128.164 54.3024 131.273 57.2978 134.205 56.6866Z" fill="#501800"/>
<path d="M297.764 448.314C297.764 448.314 300.813 464.083 315.611 464.962C330.409 465.84 327.2 477.603 327.2 477.603H270.649V449.414L297.764 448.314Z" fill="#017FFA"/>
<path d="M190.178 438.358C190.178 438.358 185.937 453.85 198.827 461.156C211.718 468.461 203.634 477.603 203.634 477.603L152.89 452.695L165.362 427.401L190.178 438.358Z" fill="#017FFA"/>
<path d="M158.749 433.982L201.541 299.295H123.974C108.393 299.295 101.898 286.112 101.898 270.567C101.898 255.023 117.215 241.396 132.796 241.396H237.482C246.985 241.396 257.641 247.194 262.857 255.12C268.073 263.046 266.662 275.328 262.884 284.028L194.359 450.077" fill="#262626"/>
<path opacity="0.8" d="M158.749 433.982L201.541 299.295H123.974C108.393 299.295 101.898 286.112 101.898 270.567C101.898 255.023 117.215 241.396 132.796 241.396H237.482C246.985 241.396 257.641 247.194 262.857 255.12C268.073 263.046 266.662 275.328 262.884 284.028L194.359 450.077" fill="#191047"/>
<path d="M267.397 462.958L195.846 299.295L101.896 299.288C79.8826 297.567 69.8006 285.53 70.1214 269.989C70.4375 254.644 78.2249 239.488 93.5352 239.488H220.162C231.49 239.72 240.402 252.21 244.605 262.708L304.088 452.939" fill="#191047"/>
<path d="M63.7136 239.676C63.7136 239.676 59.5412 266.822 66.1549 281.915C74.4114 300.757 105.363 299.288 105.363 299.288L103.619 239.488L63.7136 239.676Z" fill="#191047"/>
<path d="M247.297 239.142L180.933 225.422C178.168 224.85 175.592 223.592 173.443 221.763C171.294 219.935 169.643 217.595 168.641 214.961L142.539 146.336C141.744 144.277 141.365 142.081 141.423 139.874C141.482 137.668 141.976 135.495 142.879 133.48C143.781 131.466 145.074 129.648 146.682 128.134C148.291 126.619 150.183 125.436 152.252 124.653C154.32 123.869 156.522 123.502 158.733 123.571C160.944 123.639 163.12 124.143 165.135 125.054C167.15 125.964 168.965 127.262 170.476 128.874C171.986 130.486 173.163 132.38 173.938 134.447L196.771 194.475L254.113 206.329C254.113 206.329 248.448 239.38 247.297 239.142Z" fill="#017FFA"/>
<path d="M170.54 163.763C169.774 172.746 164.342 228.789 163.602 239.853H63.7574C63.1836 229.874 61.3212 187.505 59.1455 167.99C57.0692 149.368 56.3158 138.741 58.7076 132.955C62.926 122.748 73.4822 119.075 82.5753 117.847C88.1272 117.097 96.4781 116.56 96.4781 116.56C96.4781 116.56 97.1855 130.831 114.045 131.625C136.996 132.703 135.464 116.56 135.578 116.56C139.296 116.56 159.535 119.257 164.595 122.548C171.743 127.197 173.855 133.531 173.939 139.35C174.035 146.051 171.409 153.575 170.54 163.763Z" fill="#017FFA"/>
<path d="M166.616 209.556H166.592C166.555 209.553 166.519 209.543 166.486 209.526C166.452 209.509 166.423 209.485 166.399 209.457C166.375 209.428 166.356 209.395 166.345 209.36C166.334 209.324 166.329 209.287 166.332 209.25L168.924 178.184C168.927 178.147 168.936 178.11 168.953 178.077C168.97 178.043 168.993 178.013 169.022 177.989C169.051 177.965 169.084 177.946 169.12 177.935C169.156 177.924 169.194 177.921 169.231 177.925C169.268 177.928 169.304 177.938 169.338 177.955C169.371 177.973 169.4 177.996 169.425 178.024C169.449 178.053 169.467 178.086 169.478 178.121C169.49 178.157 169.494 178.194 169.491 178.231L166.899 209.297C166.893 209.368 166.86 209.433 166.808 209.481C166.756 209.529 166.687 209.556 166.616 209.556Z" fill="#191047"/>
<path d="M214.168 229.11L236.076 161.92C236.461 160.739 237.21 159.71 238.217 158.981C239.224 158.251 240.437 157.858 241.681 157.858H336.622C337.552 157.858 338.469 158.078 339.298 158.499C340.127 158.921 340.845 159.532 341.391 160.283C341.938 161.034 342.299 161.904 342.444 162.821C342.589 163.738 342.515 164.676 342.227 165.558L314.633 232.751C314.248 233.931 313.498 234.96 312.491 235.69C311.485 236.419 310.272 236.812 309.028 236.812H219.774C218.843 236.812 217.925 236.593 217.096 236.171C216.267 235.75 215.55 235.138 215.003 234.387C214.456 233.635 214.095 232.765 213.95 231.848C213.805 230.931 213.88 229.993 214.168 229.11Z" fill="#AEAEAE"/>
<path d="M214.168 229.11L236.076 161.92C236.461 160.739 237.21 159.71 238.217 158.981C239.224 158.251 240.437 157.858 241.681 157.858H336.622C337.552 157.858 338.469 158.078 339.298 158.499C340.127 158.921 340.845 159.532 341.391 160.283C341.938 161.034 342.299 161.904 342.444 162.821C342.589 163.738 342.515 164.676 342.227 165.558L314.633 232.751C314.248 233.931 313.498 234.96 312.491 235.69C311.485 236.419 310.272 236.812 309.028 236.812H219.774C218.843 236.812 217.925 236.593 217.096 236.171C216.267 235.75 215.55 235.138 215.003 234.387C214.456 233.635 214.095 232.765 213.95 231.848C213.805 230.931 213.88 229.993 214.168 229.11Z" fill="#EAEAEA"/>
<path d="M232.039 231.362H172.292C170.804 231.362 169.597 232.566 169.597 234.051V234.12C169.597 235.605 170.804 236.809 172.292 236.809H232.039C233.528 236.809 234.735 235.605 234.735 234.12V234.051C234.735 232.566 233.528 231.362 232.039 231.362Z" fill="#AEAEAE"/>
<path d="M232.039 231.362H172.292C170.804 231.362 169.597 232.566 169.597 234.051V234.12C169.597 235.605 170.804 236.809 172.292 236.809H232.039C233.528 236.809 234.735 235.605 234.735 234.12V234.051C234.735 232.566 233.528 231.362 232.039 231.362Z" fill="#EAEAEA"/>
<path d="M275.354 209.952C280.524 209.952 284.715 205.77 284.715 200.612C284.715 195.454 280.524 191.273 275.354 191.273C270.184 191.273 265.993 195.454 265.993 200.612C265.993 205.77 270.184 209.952 275.354 209.952Z" fill="white"/>
<path d="M209.174 212.462L194.263 207.247L196.403 207.099C197.093 207.038 197.734 206.718 198.197 206.203C198.659 205.688 198.908 205.017 198.894 204.326C198.874 203.97 198.782 203.621 198.623 203.302C198.463 202.982 198.24 202.698 197.967 202.467C197.695 202.237 197.377 202.064 197.035 201.959C196.693 201.855 196.333 201.821 195.978 201.86L169.597 204.657L170.279 213.115C170.492 215.742 171.486 218.246 173.135 220.306C174.783 222.365 177.011 223.887 179.531 224.675L190.956 228.225C191.546 228.421 192.186 228.408 192.767 228.188C193.348 227.967 193.835 227.553 194.146 227.015C194.415 226.524 194.521 225.959 194.446 225.404C194.372 224.849 194.121 224.332 193.732 223.928C193.757 223.91 193.778 223.887 193.794 223.861C193.81 223.835 193.821 223.805 193.825 223.775C193.83 223.744 193.828 223.713 193.819 223.683C193.811 223.653 193.797 223.625 193.778 223.601L195.882 224.26C196.538 224.48 197.254 224.443 197.885 224.157C198.515 223.87 199.013 223.356 199.278 222.717C199.494 222.138 199.499 221.501 199.291 220.918C199.083 220.336 198.675 219.845 198.141 219.533C198.165 219.52 198.187 219.502 198.205 219.481L199.071 219.752C199.661 219.948 200.301 219.934 200.882 219.714C201.463 219.493 201.95 219.079 202.261 218.541C202.588 217.945 202.671 217.246 202.493 216.59C202.315 215.935 201.889 215.373 201.305 215.023C201.31 215.006 201.313 214.988 201.313 214.97L207.523 217.141C207.832 217.253 208.16 217.302 208.487 217.286C208.815 217.271 209.137 217.19 209.434 217.05C209.73 216.909 209.996 216.711 210.215 216.468C210.435 216.224 210.604 215.94 210.712 215.631C210.821 215.321 210.867 214.994 210.848 214.667C210.829 214.34 210.745 214.02 210.601 213.725C210.457 213.431 210.257 213.168 210.01 212.951C209.764 212.735 209.477 212.569 209.166 212.464L209.174 212.462Z" fill="#FFA07B"/>
<path opacity="0.2" d="M201.078 215.21C201.049 215.21 201.02 215.205 200.993 215.195L194.987 213.016C194.925 212.994 194.875 212.947 194.847 212.888C194.82 212.828 194.817 212.76 194.839 212.699C194.862 212.637 194.908 212.587 194.968 212.56C195.027 212.532 195.096 212.529 195.157 212.552L201.164 214.731C201.219 214.751 201.265 214.789 201.294 214.84C201.323 214.89 201.334 214.949 201.323 215.006C201.313 215.063 201.283 215.115 201.239 215.153C201.194 215.19 201.138 215.21 201.079 215.21H201.078Z" fill="#0A0A0A"/>
<path opacity="0.2" d="M198.04 219.567C198.012 219.567 197.984 219.562 197.957 219.553L193.223 217.877C193.192 217.866 193.163 217.85 193.138 217.828C193.113 217.807 193.093 217.78 193.078 217.751C193.064 217.721 193.055 217.689 193.053 217.657C193.051 217.624 193.056 217.591 193.067 217.56C193.078 217.529 193.095 217.5 193.117 217.476C193.14 217.452 193.166 217.432 193.196 217.418C193.226 217.404 193.259 217.397 193.292 217.395C193.324 217.394 193.357 217.4 193.388 217.411L198.123 219.087C198.178 219.107 198.224 219.145 198.254 219.195C198.283 219.245 198.294 219.304 198.284 219.362C198.274 219.419 198.244 219.471 198.2 219.509C198.155 219.546 198.099 219.567 198.04 219.567Z" fill="#0A0A0A"/>
<path opacity="0.2" d="M193.582 223.988C193.552 223.988 193.522 223.983 193.494 223.972L191.276 223.128C191.215 223.105 191.165 223.058 191.139 222.998C191.112 222.938 191.11 222.871 191.133 222.809C191.157 222.748 191.204 222.699 191.264 222.672C191.324 222.645 191.392 222.644 191.453 222.667L193.671 223.511C193.725 223.531 193.77 223.57 193.799 223.62C193.827 223.671 193.837 223.729 193.827 223.786C193.816 223.843 193.786 223.895 193.741 223.931C193.697 223.968 193.641 223.989 193.583 223.988H193.582Z" fill="#0A0A0A"/>
<path d="M181.273 199.651L118.719 199.609L95.0548 142.015L59.7528 156.823L89.2771 225.179L89.5654 225.86C91.0099 229.182 93.443 231.981 96.5352 233.878C99.6275 235.775 103.229 236.678 106.853 236.464L182.218 232.022L181.273 199.651Z" fill="#017FFA"/>
<path d="M105.817 236.778C102.311 236.772 98.8814 235.746 95.9492 233.827C93.0169 231.908 90.7085 229.179 89.306 225.972L89.0172 225.291L63.8575 167.048L64.3795 166.822L89.8275 225.749C91.2555 229.013 93.651 231.762 96.6917 233.627C99.7325 235.492 103.273 236.383 106.836 236.181L181.925 231.755L180.995 199.936L118.528 199.894L100.33 155.609L100.857 155.395L118.908 199.327L181.547 199.369L182.51 232.289L182.234 232.306L106.872 236.747C106.52 236.768 106.167 236.778 105.817 236.778Z" fill="#191047"/>
<path d="M36.2402 241.341L12.25 478.129L13.3815 478.244L37.3717 241.455L36.2402 241.341Z" fill="#AEAEAE"/>
<path d="M135.358 241.341L111.368 478.129L112.5 478.243L136.49 241.455L135.358 241.341Z" fill="#AEAEAE"/>
<path d="M342.033 241.338L340.902 241.452L364.875 478.242L366.007 478.128L342.033 241.338Z" fill="#AEAEAE"/>
<path d="M363.652 236.747H16.192C13.6186 236.747 11.5323 238.828 11.5323 241.395C11.5323 243.963 13.6186 246.044 16.192 246.044H363.652C366.225 246.044 368.311 243.963 368.311 241.395C368.311 238.828 366.225 236.747 363.652 236.747Z" fill="#AEAEAE"/>
<path opacity="0.8" d="M363.652 236.747H16.192C13.6186 236.747 11.5323 238.828 11.5323 241.395C11.5323 243.963 13.6186 246.044 16.192 246.044H363.652C366.225 246.044 368.311 243.963 368.311 241.395C368.311 238.828 366.225 236.747 363.652 236.747Z" fill="white"/>
<path d="M363.652 246.611H16.1943C15.5032 246.619 14.8175 246.489 14.1768 246.23C13.5362 245.971 12.9534 245.588 12.4621 245.103C11.9708 244.618 11.5808 244.041 11.3147 243.404C11.0485 242.768 10.9114 242.085 10.9114 241.395C10.9114 240.706 11.0485 240.023 11.3147 239.387C11.5808 238.75 11.9708 238.173 12.4621 237.688C12.9534 237.203 13.5362 236.819 14.1768 236.561C14.8175 236.302 15.5032 236.172 16.1943 236.179H363.652C364.343 236.172 365.029 236.302 365.67 236.561C366.31 236.819 366.893 237.203 367.384 237.688C367.876 238.173 368.266 238.75 368.532 239.387C368.798 240.023 368.935 240.706 368.935 241.395C368.935 242.085 368.798 242.768 368.532 243.404C368.266 244.041 367.876 244.618 367.384 245.103C366.893 245.588 366.31 245.971 365.67 246.23C365.029 246.489 364.343 246.619 363.652 246.611ZM16.1943 237.314C15.6531 237.308 15.1159 237.408 14.614 237.611C14.1121 237.813 13.6554 238.113 13.2704 238.492C12.8854 238.872 12.5797 239.324 12.3711 239.822C12.1625 240.321 12.0551 240.855 12.0551 241.395C12.0551 241.935 12.1625 242.47 12.3711 242.968C12.5797 243.467 12.8854 243.919 13.2704 244.298C13.6554 244.678 14.1121 244.978 14.614 245.18C15.1159 245.382 15.6531 245.483 16.1943 245.477H363.652C364.193 245.483 364.731 245.382 365.232 245.18C365.734 244.978 366.191 244.678 366.576 244.298C366.961 243.919 367.267 243.467 367.475 242.968C367.684 242.47 367.791 241.935 367.791 241.395C367.791 240.855 367.684 240.321 367.475 239.822C367.267 239.324 366.961 238.872 366.576 238.492C366.191 238.113 365.734 237.813 365.232 237.611C364.731 237.408 364.193 237.308 363.652 237.314H16.1943Z" fill="#AEAEAE"/>
<path d="M363.652 236.747H119.099C116.526 236.747 114.44 238.828 114.44 241.395C114.44 243.963 116.526 246.044 119.099 246.044H363.652C366.225 246.044 368.311 243.963 368.311 241.395C368.311 238.828 366.225 236.747 363.652 236.747Z" fill="white"/>
<path d="M363.652 246.611H119.099C117.722 246.597 116.406 246.041 115.438 245.065C114.469 244.088 113.925 242.769 113.925 241.395C113.925 240.021 114.469 238.703 115.438 237.726C116.406 236.749 117.722 236.194 119.099 236.179H363.652C364.343 236.172 365.029 236.302 365.67 236.561C366.31 236.819 366.893 237.203 367.384 237.688C367.876 238.173 368.266 238.75 368.532 239.387C368.798 240.023 368.935 240.706 368.935 241.395C368.935 242.085 368.798 242.768 368.532 243.404C368.266 244.041 367.876 244.618 367.384 245.103C366.893 245.588 366.31 245.971 365.67 246.23C365.029 246.489 364.343 246.619 363.652 246.611ZM119.099 237.314C118.023 237.327 116.995 237.762 116.238 238.526C115.481 239.29 115.056 240.321 115.056 241.395C115.056 242.47 115.481 243.5 116.238 244.264C116.995 245.028 118.023 245.464 119.099 245.477H363.652C364.193 245.483 364.731 245.382 365.232 245.18C365.734 244.978 366.191 244.678 366.576 244.298C366.961 243.919 367.267 243.467 367.475 242.968C367.684 242.47 367.791 241.935 367.791 241.395C367.791 240.855 367.684 240.321 367.475 239.822C367.267 239.324 366.961 238.872 366.576 238.492C366.191 238.113 365.734 237.813 365.232 237.611C364.731 237.408 364.193 237.308 363.652 237.314H119.099Z" fill="#AEAEAE"/>
<path d="M371.493 402.513C371.418 402.513 371.344 402.498 371.275 402.47C371.206 402.441 371.143 402.399 371.091 402.346C370.289 401.548 368.983 386.881 365.465 343.214C364.026 325.346 362.666 308.469 361.674 298.213C361.603 297.481 361.319 297.396 361.225 297.368C359.867 296.959 355.737 300.208 353.431 303.054C353.336 303.171 353.198 303.246 353.048 303.261C352.898 303.277 352.748 303.233 352.63 303.138C352.513 303.044 352.438 302.906 352.422 302.757C352.406 302.607 352.451 302.457 352.546 302.34C354.071 300.459 359.041 295.527 361.552 296.281C362.058 296.433 362.69 296.872 362.806 298.104C363.8 308.37 365.159 325.251 366.599 343.123C368.737 369.659 371.158 399.721 371.954 401.614C372.015 401.699 372.052 401.799 372.06 401.903C372.067 402.007 372.046 402.111 371.998 402.204C371.951 402.297 371.878 402.375 371.789 402.429C371.7 402.484 371.597 402.513 371.493 402.513Z" fill="#0C8234"/>
<path d="M360.213 317.034C369.649 309.487 372.777 297.741 367.199 290.797C361.62 283.854 349.449 284.343 340.012 291.89C330.576 299.437 327.448 311.183 333.026 318.126C338.605 325.07 350.777 324.58 360.213 317.034Z" fill="#6FBC0C"/>
<path d="M335.672 319.892C335.618 319.892 335.565 319.877 335.52 319.848C335.474 319.819 335.438 319.778 335.415 319.729C335.392 319.68 335.383 319.626 335.39 319.573C335.397 319.519 335.419 319.469 335.453 319.427L362.346 287.071C362.394 287.013 362.464 286.977 362.539 286.97C362.614 286.963 362.689 286.986 362.747 287.034C362.805 287.082 362.841 287.151 362.848 287.226C362.855 287.301 362.832 287.376 362.784 287.434L335.891 319.79C335.864 319.822 335.831 319.848 335.793 319.865C335.755 319.883 335.714 319.892 335.672 319.892Z" fill="white"/>
<path d="M377.358 395.576C377.267 395.576 377.178 395.555 377.097 395.513C377.017 395.472 376.947 395.411 376.895 395.338C376.842 395.264 376.808 395.179 376.795 395.089C376.782 394.999 376.791 394.908 376.821 394.822L386.924 365.838C387.221 364.986 387.728 364.223 388.398 363.617C389.067 363.012 389.879 362.584 390.757 362.372C391.636 362.161 392.554 362.172 393.427 362.406C394.3 362.64 395.1 363.089 395.754 363.711L401.095 368.801C401.204 368.905 401.267 369.048 401.271 369.199C401.274 369.349 401.218 369.495 401.113 369.604C401.009 369.713 400.866 369.776 400.715 369.779C400.564 369.783 400.418 369.726 400.309 369.622L394.969 364.532C394.452 364.04 393.821 363.686 393.131 363.501C392.442 363.317 391.718 363.307 391.024 363.474C390.33 363.642 389.69 363.98 389.161 364.458C388.632 364.936 388.232 365.538 387.997 366.211L377.896 395.196C377.857 395.307 377.784 395.404 377.688 395.472C377.592 395.54 377.476 395.577 377.358 395.576Z" fill="#0C8234"/>
<path d="M416.015 384.849C423.008 379.326 422.592 367.179 415.086 357.718C407.581 348.257 395.827 345.065 388.833 350.588C381.84 356.11 382.256 368.257 389.762 377.718C397.268 387.179 409.021 390.371 416.015 384.849Z" fill="#6FBC0C"/>
<path d="M366.906 400.664C366.779 400.664 366.655 400.621 366.554 400.542C366.454 400.463 366.383 400.353 366.354 400.229L349.398 329.51C349.282 329.028 349.035 328.587 348.685 328.236C348.334 327.885 347.893 327.637 347.41 327.52C346.928 327.403 346.422 327.42 345.949 327.571C345.476 327.722 345.053 328 344.728 328.375L339.502 334.4C339.453 334.457 339.394 334.504 339.327 334.538C339.26 334.573 339.187 334.593 339.112 334.599C339.037 334.605 338.962 334.595 338.891 334.572C338.819 334.548 338.753 334.511 338.696 334.462C338.64 334.413 338.593 334.353 338.56 334.286C338.526 334.219 338.506 334.146 338.501 334.071C338.496 333.996 338.506 333.921 338.53 333.85C338.554 333.779 338.593 333.714 338.642 333.658L343.868 327.633C344.33 327.1 344.93 326.705 345.603 326.49C346.276 326.276 346.995 326.251 347.681 326.418C348.367 326.585 348.994 326.938 349.492 327.437C349.99 327.936 350.341 328.563 350.505 329.249L367.457 399.967C367.491 400.113 367.466 400.267 367.387 400.394C367.308 400.522 367.182 400.613 367.036 400.648C366.994 400.659 366.95 400.664 366.906 400.664Z" fill="#0C8234"/>
<path d="M360.651 350.111C362.712 338.221 357.258 327.353 348.469 325.837C339.681 324.321 330.886 332.73 328.825 344.62C326.764 356.509 332.218 367.377 341.007 368.893C349.795 370.409 358.59 362 360.651 350.111Z" fill="#0C8234"/>
<path d="M371.493 402.513C371.47 402.513 371.447 402.511 371.423 402.509C371.349 402.5 371.277 402.476 371.212 402.439C371.147 402.403 371.09 402.353 371.044 402.295C370.998 402.236 370.964 402.169 370.944 402.097C370.924 402.025 370.919 401.95 370.928 401.876L381.753 314.186C381.871 313.23 382.263 312.329 382.882 311.591C383.501 310.853 384.32 310.308 385.242 310.024C386.163 309.739 387.148 309.726 388.076 309.985C389.005 310.245 389.839 310.767 390.478 311.489L402.851 325.47C402.951 325.583 403.002 325.731 402.992 325.881C402.983 326.032 402.914 326.172 402.801 326.272C402.688 326.371 402.54 326.422 402.389 326.413C402.238 326.403 402.098 326.335 401.998 326.222L389.625 312.24C389.131 311.682 388.487 311.279 387.769 311.078C387.051 310.877 386.29 310.887 385.578 311.107C384.866 311.327 384.233 311.748 383.754 312.319C383.276 312.889 382.973 313.586 382.882 314.324L372.057 402.014C372.04 402.152 371.974 402.278 371.87 402.37C371.766 402.462 371.632 402.513 371.493 402.513Z" fill="#0C8234"/>
<path d="M415.541 333.24C419.858 325.454 414.779 314.407 404.196 308.567C393.614 302.726 381.535 304.304 377.218 312.091C372.901 319.877 377.98 330.924 388.563 336.764C399.146 342.605 411.224 341.027 415.541 333.24Z" fill="#0C8234"/>
<path d="M385.339 476.918H357.647L353.057 388.52H389.927L385.339 476.918Z" fill="#FFC239"/>
<path d="M416.016 385.128C415.973 385.128 415.93 385.119 415.892 385.1C415.853 385.081 415.819 385.054 415.793 385.021L388.61 350.76C388.563 350.701 388.542 350.626 388.551 350.551C388.559 350.476 388.597 350.408 388.657 350.361C388.716 350.314 388.791 350.293 388.866 350.302C388.941 350.31 389.009 350.348 389.056 350.407L416.238 384.668C416.272 384.71 416.293 384.76 416.298 384.814C416.304 384.867 416.295 384.92 416.272 384.968C416.249 385.016 416.212 385.057 416.167 385.085C416.121 385.114 416.069 385.129 416.016 385.128Z" fill="white"/>
<path d="M413.733 335.985C413.673 335.985 413.614 335.965 413.566 335.929L378.782 310.589C378.722 310.545 378.681 310.478 378.669 310.403C378.657 310.329 378.676 310.253 378.72 310.192C378.765 310.132 378.832 310.091 378.906 310.079C378.981 310.068 379.057 310.086 379.118 310.131L413.901 335.471C413.949 335.507 413.984 335.556 414.002 335.613C414.02 335.67 414.019 335.731 414 335.787C413.982 335.844 413.945 335.893 413.897 335.928C413.848 335.963 413.79 335.981 413.731 335.981L413.733 335.985Z" fill="white"/>
<path d="M339.593 368.523C339.568 368.523 339.544 368.52 339.52 368.513C339.447 368.494 339.385 368.446 339.347 368.381C339.31 368.316 339.299 368.239 339.318 368.166L350.391 326.775C350.412 326.705 350.46 326.645 350.524 326.609C350.589 326.572 350.665 326.563 350.737 326.582C350.808 326.601 350.87 326.647 350.908 326.71C350.946 326.774 350.957 326.849 350.94 326.921L339.868 368.312C339.852 368.373 339.816 368.426 339.766 368.464C339.717 368.503 339.656 368.523 339.593 368.523Z" fill="white"/>
<path d="M398.708 477.715H0.39807C0.292495 477.715 0.191244 477.673 0.116592 477.598C0.0419394 477.524 0 477.423 0 477.318C0 477.212 0.0419394 477.111 0.116592 477.037C0.191244 476.962 0.292495 476.92 0.39807 476.92H398.706C398.812 476.92 398.913 476.962 398.988 477.037C399.063 477.111 399.105 477.212 399.105 477.318C399.105 477.423 399.063 477.524 398.988 477.598C398.913 477.673 398.812 477.715 398.706 477.715H398.708Z" fill="#AEAEAE"/>
<g opacity="0.65">
<path d="M398.708 477.715H0.39807C0.292495 477.715 0.191244 477.673 0.116592 477.598C0.0419394 477.524 0 477.423 0 477.318C0 477.212 0.0419394 477.111 0.116592 477.037C0.191244 476.962 0.292495 476.92 0.39807 476.92H398.706C398.812 476.92 398.913 476.962 398.988 477.037C399.063 477.111 399.105 477.212 399.105 477.318C399.105 477.423 399.063 477.524 398.988 477.598C398.913 477.673 398.812 477.715 398.706 477.715H398.708Z" fill="#AEAEAE"/>
</g>
</g>
<defs>
<clipPath id="clip0_864_7152">
<rect width="421" height="478" fill="white"/>
</clipPath>
</defs>
</svg>
