<svg width="464" height="445" viewBox="0 0 464 445" fill="none" xmlns="http://www.w3.org/2000/svg">
<path opacity="0.03" d="M72.799 444.568C24.308 444.568 -10.8809 397.885 3.08943 351.457C10.9898 325.201 26.6852 299.582 56.5332 284.044C138.213 241.523 131.018 253.182 169.519 181.729C208.02 110.276 312.37 93.3251 367.048 143.657C444.383 214.846 392.363 271.558 441.303 320.49C441.813 321.001 442.316 321.513 442.812 322.028C487.032 367.936 453.756 444.568 390.013 444.568H72.799Z" fill="#292A2E"/>
<path d="M279.793 192.581V154.495H97.7553V192.58C97.7573 212.495 104.29 231.86 116.353 247.708C128.416 263.555 145.344 275.01 164.541 280.317C167.359 281.108 169.841 282.798 171.609 285.131C173.377 287.463 174.334 290.309 174.334 293.235C174.334 296.162 173.377 299.008 171.609 301.34C169.841 303.672 167.359 305.363 164.541 306.154C145.343 311.461 128.415 322.916 116.352 338.764C104.289 354.612 97.7565 373.978 97.7553 393.893V431.979H279.793V393.893C279.791 373.978 273.258 354.613 261.195 338.766C249.131 322.919 232.204 311.464 213.007 306.156C210.188 305.366 207.706 303.676 205.938 301.343C204.17 299.011 203.212 296.165 203.212 293.238C203.212 290.312 204.17 287.465 205.938 285.133C207.706 282.801 210.188 281.111 213.007 280.32C232.204 275.013 249.132 263.558 261.195 247.711C273.258 231.863 279.791 212.498 279.793 192.583" fill="#017FFA"/>
<path opacity="0.8" d="M279.793 192.581V154.495H97.7553V192.58C97.7573 212.495 104.29 231.86 116.353 247.708C128.416 263.555 145.344 275.01 164.541 280.317C167.359 281.108 169.841 282.798 171.609 285.131C173.377 287.463 174.334 290.309 174.334 293.235C174.334 296.162 173.377 299.008 171.609 301.34C169.841 303.672 167.359 305.363 164.541 306.154C145.343 311.461 128.415 322.916 116.352 338.764C104.289 354.612 97.7565 373.978 97.7553 393.893V431.979H279.793V393.893C279.791 373.978 273.258 354.613 261.195 338.766C249.131 322.919 232.204 311.464 213.007 306.156C210.188 305.366 207.706 303.676 205.938 301.343C204.17 299.011 203.212 296.165 203.212 293.238C203.212 290.312 204.17 287.465 205.938 285.133C207.706 282.801 210.188 281.111 213.007 280.32C232.204 275.013 249.132 263.558 261.195 247.711C273.258 231.863 279.791 212.498 279.793 192.583" fill="white"/>
<path d="M290.368 147.563C290.369 149.374 289.66 151.114 288.393 152.41C287.126 153.705 285.402 154.452 283.59 154.492C283.537 154.495 283.488 154.495 283.434 154.495H94.4224C94.3689 154.495 94.3195 154.495 94.2666 154.492C92.4417 154.451 90.7065 153.692 89.4376 152.38C88.1688 151.069 87.4686 149.309 87.4891 147.484C87.5096 145.659 88.2492 143.916 89.5472 142.633C90.8453 141.35 92.5971 140.63 94.4224 140.63H283.432C284.343 140.63 285.245 140.809 286.086 141.157C286.928 141.506 287.692 142.016 288.336 142.66C288.98 143.304 289.491 144.068 289.84 144.909C290.189 145.75 290.368 146.652 290.368 147.563Z" fill="#1C1541"/>
<path d="M191.99 368.091V285.776C191.92 282.649 192.879 279.585 194.719 277.055C196.559 274.526 199.178 272.67 202.175 271.773C234.385 262.911 264.35 234.021 265.823 200.837C265.901 199.058 264.338 197.885 262.556 197.885H114.99C113.207 197.885 111.645 199.058 111.723 200.837C113.196 234.021 143.161 262.911 175.371 271.773C179.929 273.034 185.558 278.619 185.558 285.982V368.097C185.558 374.019 183.328 379.048 179.14 383.234C175.683 386.692 123.615 431.978 123.615 431.978H253.933C253.933 431.978 201.384 386.175 198.491 383.28C194.303 379.096 191.99 374.012 191.99 368.091Z" fill="#FAFAFA"/>
<path d="M290.417 437.099C290.418 438.911 289.709 440.651 288.442 441.946C287.175 443.241 285.451 443.989 283.639 444.028C283.586 444.031 283.537 444.031 283.484 444.031H94.4719C94.419 444.031 94.3695 444.031 94.3166 444.028C92.4918 443.987 90.7566 443.229 89.4878 441.917C88.2189 440.605 87.5187 438.845 87.5391 437.021C87.5596 435.196 88.299 433.452 89.5969 432.169C90.8949 430.886 92.6466 430.166 94.4719 430.167H283.484C285.323 430.167 287.086 430.897 288.386 432.197C289.687 433.497 290.417 435.261 290.417 437.099Z" fill="#1C1541"/>
<path d="M335.226 425.007C379.854 425.007 416.033 388.833 416.033 344.211C416.033 299.589 379.854 263.416 335.226 263.416C290.597 263.416 254.419 299.589 254.419 344.211C254.419 388.833 290.597 425.007 335.226 425.007Z" fill="white"/>
<path d="M358.799 421.921C315.942 434.915 270.502 410.63 257.504 367.78C244.506 324.93 268.797 279.497 311.653 266.503C354.509 253.509 399.95 277.792 412.946 320.642C425.942 363.491 401.654 408.925 358.799 421.921ZM311.891 267.286C269.468 280.15 245.422 325.125 258.289 367.542C271.156 409.959 316.137 434.001 358.56 421.136C400.984 408.271 425.029 363.297 412.162 320.88C399.296 278.463 354.314 254.421 311.891 267.286Z" fill="white"/>
<path d="M335.226 415.345C374.517 415.345 406.37 383.497 406.37 344.211C406.37 304.925 374.517 273.078 335.226 273.078C295.934 273.078 264.082 304.925 264.082 344.211C264.082 383.497 295.934 415.345 335.226 415.345Z" fill="#FFC239"/>
<path opacity="0.4" d="M335.39 408.394C371.013 408.394 399.89 379.517 399.89 343.894C399.89 308.272 371.013 279.394 335.39 279.394C299.768 279.394 270.89 308.272 270.89 343.894C270.89 379.517 299.768 408.394 335.39 408.394Z" fill="white"/>
<path d="M335.226 348.488C337.588 348.488 339.503 346.573 339.503 344.211C339.503 341.849 337.588 339.934 335.226 339.934C332.863 339.934 330.948 341.849 330.948 344.211C330.948 346.573 332.863 348.488 335.226 348.488Z" fill="white"/>
<mask id="path-12-outside-1_864_7072" maskUnits="userSpaceOnUse" x="332.89" y="306.394" width="50" height="64" fill="black">
<rect fill="white" x="332.89" y="306.394" width="50" height="64"/>
<path d="M380.64 368.379C380.596 368.393 380.549 368.397 380.503 368.393C380.457 368.388 380.412 368.375 380.371 368.353L335.092 344.387C335.036 344.357 334.989 344.313 334.956 344.259C334.923 344.204 334.906 344.142 334.905 344.079L334.89 308.744C334.89 308.651 334.927 308.562 334.993 308.497C335.06 308.431 335.149 308.394 335.243 308.394C335.337 308.394 335.426 308.431 335.492 308.497C335.559 308.562 335.596 308.651 335.596 308.744L335.611 343.87L380.704 367.738C380.765 367.77 380.816 367.82 380.848 367.881C380.881 367.942 380.895 368.011 380.888 368.08C380.882 368.149 380.854 368.214 380.81 368.267C380.766 368.321 380.707 368.359 380.64 368.379Z"/>
</mask>
<path d="M380.64 368.379C380.596 368.393 380.549 368.397 380.503 368.393C380.457 368.388 380.412 368.375 380.371 368.353L335.092 344.387C335.036 344.357 334.989 344.313 334.956 344.259C334.923 344.204 334.906 344.142 334.905 344.079L334.89 308.744C334.89 308.651 334.927 308.562 334.993 308.497C335.06 308.431 335.149 308.394 335.243 308.394C335.337 308.394 335.426 308.431 335.492 308.497C335.559 308.562 335.596 308.651 335.596 308.744L335.611 343.87L380.704 367.738C380.765 367.77 380.816 367.82 380.848 367.881C380.881 367.942 380.895 368.011 380.888 368.08C380.882 368.149 380.854 368.214 380.81 368.267C380.766 368.321 380.707 368.359 380.64 368.379Z" fill="white"/>
<path d="M380.64 368.379L380.064 366.464L380.062 366.465L380.64 368.379ZM380.503 368.393L380.307 370.383L380.307 370.383L380.503 368.393ZM380.371 368.353L381.312 366.588L381.307 366.585L380.371 368.353ZM335.092 344.387L336.028 342.619L336.026 342.618L335.092 344.387ZM334.956 344.259L336.666 343.222V343.222L334.956 344.259ZM334.905 344.079L336.905 344.079V344.078L334.905 344.079ZM334.89 308.744H332.89L332.89 308.745L334.89 308.744ZM334.993 308.497L336.401 309.918L334.993 308.497ZM335.492 308.497L334.085 309.918L334.085 309.918L335.492 308.497ZM335.596 308.744H333.596L333.596 308.745L335.596 308.744ZM335.611 343.87L333.611 343.871L333.612 345.075L334.676 345.638L335.611 343.87ZM380.704 367.738L381.639 365.97L381.639 365.97L380.704 367.738ZM380.848 367.881L382.608 366.931L382.608 366.931L380.848 367.881ZM380.888 368.08L378.898 367.882L378.898 367.882L380.888 368.08ZM380.81 368.267L382.35 369.543L382.35 369.543L380.81 368.267ZM380.062 366.465C380.269 366.402 380.485 366.381 380.699 366.402L380.307 370.383C380.612 370.413 380.922 370.383 381.218 370.294L380.062 366.465ZM380.699 366.402C380.912 366.423 381.121 366.486 381.312 366.588L379.43 370.118C379.703 370.263 380.001 370.353 380.307 370.383L380.699 366.402ZM381.307 366.585L336.028 342.619L334.156 346.155L379.436 370.121L381.307 366.585ZM336.026 342.618C336.288 342.757 336.51 342.964 336.666 343.222L333.246 345.296C333.467 345.661 333.784 345.958 334.159 346.156L336.026 342.618ZM336.666 343.222C336.822 343.479 336.905 343.775 336.905 344.079L332.905 344.08C332.906 344.51 333.024 344.93 333.246 345.296L336.666 343.222ZM336.905 344.078L336.89 308.743L332.89 308.745L332.905 344.08L336.905 344.078ZM336.89 308.744C336.89 309.188 336.711 309.61 336.401 309.918L333.586 307.075C333.143 307.514 332.89 308.114 332.89 308.744H336.89ZM336.401 309.918C336.09 310.225 335.673 310.394 335.243 310.394V306.394C334.626 306.394 334.029 306.637 333.586 307.075L336.401 309.918ZM335.243 310.394C334.813 310.394 334.396 310.226 334.085 309.918L336.9 307.075C336.456 306.637 335.86 306.394 335.243 306.394V310.394ZM334.085 309.918C333.774 309.61 333.596 309.188 333.596 308.744H337.596C337.596 308.114 337.343 307.514 336.9 307.075L334.085 309.918ZM333.596 308.745L333.611 343.871L337.611 343.869L337.596 308.743L333.596 308.745ZM334.676 345.638L379.768 369.505L381.639 365.97L336.547 342.102L334.676 345.638ZM379.768 369.505C379.482 369.354 379.245 369.121 379.089 368.831L382.608 366.931C382.386 366.52 382.048 366.186 381.639 365.97L379.768 369.505ZM379.089 368.831C378.932 368.542 378.866 368.211 378.898 367.882L382.879 368.278C382.925 367.811 382.83 367.342 382.608 366.931L379.089 368.831ZM378.898 367.882C378.931 367.553 379.061 367.243 379.27 366.991L382.35 369.543C382.647 369.185 382.832 368.744 382.879 368.278L378.898 367.882ZM379.27 366.991C379.484 366.733 379.763 366.554 380.064 366.464L381.216 370.295C381.65 370.164 382.048 369.908 382.35 369.543L379.27 366.991Z" fill="white" mask="url(#path-12-outside-1_864_7072)"/>
<path d="M123.091 246.839C123.091 246.839 121.412 255.542 113.262 256.027C105.111 256.513 106.879 263.005 106.879 263.005H138.026V247.445L123.091 246.839Z" fill="#367CFF"/>
<path d="M140.862 220.657C140.862 220.657 143.197 229.208 136.098 233.241C128.999 237.273 133.453 242.319 133.453 242.319L161.399 228.572L154.531 214.611L140.862 220.657Z" fill="#367CFF"/>
<path d="M137.905 226.311L116.846 146.865C115.248 138.088 117.651 134.284 121.359 130.588C127.87 124.095 154.846 110.276 154.846 110.276L187.21 110.188C195.792 110.188 204.231 118.649 204.231 127.229C204.231 135.809 195.507 143.085 186.923 143.085L147.069 147.064L157.872 219.808L137.905 226.311Z" fill="#191047"/>
<path d="M157.872 219.805L153.619 191.167L132.072 204.309L137.905 226.311L157.872 219.805Z" fill="#191047"/>
<path d="M162.756 126.353C162.756 126.353 149.151 129.385 135.677 142.857C127.507 151.025 128.177 165.807 129.403 194.236L142.785 174.472L157.463 148.004L162.756 126.353Z" fill="#191047"/>
<path d="M209.862 110.178L187.883 110.074L187.874 110.362H181.219C181.219 110.362 164.549 125.7 151.127 135.366C141.364 142.396 135.408 149.098 134.893 156.402C133.637 174.209 119.468 250.153 119.468 250.153L140.792 253.382L159.504 162.623C159.504 162.623 188.765 149.136 195.533 144.442C201.906 140.022 206.408 138.314 208.517 133.49C212.16 125.162 209.862 110.178 209.862 110.178Z" fill="#191047"/>
<path d="M185.204 115.714L149.548 116.186L169.549 128.131L186.195 119.537C186.596 119.322 186.914 118.978 187.096 118.561C187.279 118.144 187.316 117.677 187.202 117.237C187.088 116.796 186.829 116.406 186.466 116.13C186.104 115.854 185.659 115.707 185.204 115.714Z" fill="#EEEEEE"/>
<path d="M149.752 51.7565L139.668 84.4295L119.468 110.874L131.268 124.417L155.3 97.5981C156.408 96.7229 157.274 95.58 157.817 94.2772L158.191 93.3717L172.071 59.7913L149.752 51.7565Z" fill="#367CFF"/>
<path d="M165.288 17.0734C165.288 17.0734 161.225 14.0067 160.218 6.94748C159.438 1.48146 164.48 5.02256 164.48 5.02256C164.48 5.02256 163.958 1.08187 166.828 1.47284C169.699 1.8638 171.308 6.00399 171.308 6.00399" fill="#501800"/>
<path d="M181.673 1.93396C181.673 1.93396 195.922 3.46159 190.771 22.7671L189.51 22.8517L186.95 23.0241" fill="#501800"/>
<path d="M167.675 42.9294C167.737 42.9213 168.433 54.4553 181.834 53.4509C191.111 52.7558 194.419 42.9144 194.632 42.9144C193.631 42.7017 192.395 42.3792 191.904 42.2682C190.833 42.0198 189.863 41.4513 189.124 40.6384C188.384 39.8255 187.91 38.8067 187.763 37.7175C187.492 36.0829 187.953 27.7192 187.811 26.0651L173.57 29.2428C173.769 32.7362 175.162 40.8349 170.28 42.2682C169.468 42.5045 168.594 42.7224 167.675 42.9294Z" fill="#FFA07B"/>
<path opacity="0.52" d="M173.372 38.9576C173.595 38.2387 173.738 37.4976 173.8 36.7475C173.957 35.0359 173.925 33.3123 173.707 31.6075C176.601 31.2163 179.328 30.0211 181.577 28.1578C181.842 29.1352 183.296 33.4008 182.893 34.3287C182.131 36.0852 178.555 38.9576 173.372 38.9576Z" fill="#501800"/>
<path d="M176.309 36.6746C181.928 36.1709 188.652 32.6218 188.749 24.9968L188.836 18.1164C188.934 10.4915 185.007 4.26023 177.826 4.16766C170.646 4.0751 165.2 10.1897 165.103 17.8163L165.064 20.8635C165.07 21.9097 165.147 22.9543 165.294 23.9901C165.663 26.7297 166.233 30.8963 168.093 33.7142C169.848 36.3721 172.72 36.9965 176.309 36.6746Z" fill="#FFA07B"/>
<path opacity="0.52" d="M173.703 29.705C172.543 29.7576 171.388 29.5368 170.33 29.0605C170.287 29.0404 170.255 29.0048 170.238 28.9611C170.221 28.9173 170.222 28.8689 170.241 28.8259C170.259 28.7829 170.293 28.7486 170.337 28.7303C170.38 28.712 170.428 28.711 170.472 28.7276C172.752 29.6999 174.823 29.5573 176.46 28.316C176.492 28.2898 176.527 28.2654 176.562 28.2429C176.604 28.219 176.654 28.2126 176.7 28.2252C176.747 28.2377 176.786 28.2682 176.81 28.3099C176.834 28.3516 176.84 28.4011 176.828 28.4476C176.815 28.494 176.785 28.5335 176.743 28.5574C176.73 28.5655 176.708 28.5822 176.679 28.6046C175.818 29.2595 174.782 29.6427 173.703 29.705Z" fill="#501800"/>
<path opacity="0.52" d="M173.757 31.423C173.547 31.4357 173.337 31.4307 173.129 31.408C173.081 31.403 173.037 31.3792 173.007 31.3418C172.977 31.3045 172.963 31.2566 172.968 31.2088C172.973 31.161 172.996 31.1172 173.034 31.0869C173.071 31.0567 173.119 31.0425 173.167 31.0475C173.495 31.108 173.833 31.0976 174.157 31.0172C174.481 30.9368 174.784 30.7882 175.046 30.5813C175.08 30.5473 175.126 30.5281 175.174 30.5281C175.222 30.528 175.268 30.5471 175.302 30.581C175.336 30.6149 175.355 30.661 175.355 30.709C175.355 30.757 175.336 30.8031 175.303 30.8371C174.871 31.2052 174.324 31.4122 173.757 31.423Z" fill="#501800"/>
<path d="M167.474 22.3268C167.962 22.3268 168.358 21.9309 168.358 21.4425C168.358 20.9541 167.962 20.5582 167.474 20.5582C166.986 20.5582 166.59 20.9541 166.59 21.4425C166.59 21.9309 166.986 22.3268 167.474 22.3268Z" fill="#501800"/>
<path d="M176.116 21.7845C176.604 21.7845 177 21.3886 177 20.9003C177 20.4119 176.604 20.016 176.116 20.016C175.627 20.016 175.231 20.4119 175.231 20.9003C175.231 21.3886 175.627 21.7845 176.116 21.7845Z" fill="#501800"/>
<path d="M188.273 27.3138C190.456 27.3419 192.254 25.0301 192.282 22.8481C192.31 20.6662 190.557 19.441 188.372 19.4128L187.23 20.8634L186.396 27.2931L188.273 27.3138Z" fill="#FFA07B"/>
<path d="M186.103 23.8084C186.103 23.8084 185.366 13.0189 182.094 12.3526C179.914 11.9087 174.63 14.9973 169.734 14.0659C167.593 13.6577 165.56 14.1878 165.353 15.1991C165.271 15.6016 163.937 9.84466 167.291 5.47679C169.96 1.99951 178.699 1.01751 182.674 2.1582C193.681 5.31523 188.824 19.8861 188.824 19.8861L188.333 23.606L186.103 23.8084Z" fill="#501800"/>
<g opacity="0.52">
<path d="M172.384 27.1586H172.37C171.667 27.1517 170.488 27.0614 170.493 26.5353C170.498 26.0995 171.738 21.4068 171.879 20.8733C171.895 20.8316 171.926 20.7972 171.965 20.7769C172.005 20.7565 172.051 20.7515 172.094 20.763C172.137 20.7745 172.174 20.8015 172.198 20.8389C172.222 20.8763 172.232 20.9213 172.224 20.9653C171.673 23.0437 170.852 26.2427 170.849 26.5388C171.328 26.7481 171.85 26.8379 172.372 26.8004C172.419 26.799 172.465 26.8166 172.5 26.8491C172.534 26.8817 172.554 26.9266 172.556 26.974C172.557 27.0215 172.539 27.0675 172.507 27.102C172.474 27.1365 172.429 27.1566 172.382 27.158L172.384 27.1586Z" fill="#501800"/>
</g>
<path d="M169.985 16.6474C169.246 16.4442 168.466 16.4442 167.727 16.6474C167.363 16.7451 167.017 16.8966 166.699 17.097C166.385 17.2936 166.097 17.5289 165.841 17.7973C165.794 17.8451 165.767 17.9094 165.766 17.9766C165.765 18.0439 165.79 18.109 165.835 18.1583C165.881 18.2076 165.944 18.2374 166.011 18.2413C166.078 18.2453 166.145 18.2232 166.196 18.1796L166.211 18.1658C166.447 17.9469 166.71 17.7585 166.993 17.6053C167.272 17.4531 167.571 17.3438 167.882 17.281C168.494 17.1531 169.128 17.1886 169.722 17.3839L169.747 17.3925C169.845 17.4271 169.953 17.4214 170.047 17.3766C170.14 17.3318 170.213 17.2516 170.247 17.1536C170.282 17.0557 170.276 16.948 170.231 16.8542C170.186 16.7604 170.106 16.6883 170.008 16.6537L169.985 16.6474Z" fill="#501800"/>
<path d="M175.218 17.0913C175.78 16.8184 176.405 16.6993 177.028 16.7463C177.345 16.7667 177.656 16.8352 177.952 16.9493C178.253 17.0633 178.538 17.2148 178.802 17.4L178.819 17.4109C178.875 17.4477 178.944 17.4612 179.01 17.4486C179.076 17.436 179.135 17.3982 179.174 17.3432C179.213 17.2883 179.229 17.2203 179.219 17.1537C179.209 17.0871 179.173 17.027 179.12 16.9861C178.831 16.7537 178.514 16.5587 178.176 16.4059C177.834 16.2497 177.471 16.1456 177.098 16.0972C176.338 15.9939 175.565 16.0976 174.86 16.3973C174.764 16.4386 174.689 16.5161 174.651 16.6127C174.613 16.7093 174.615 16.8172 174.656 16.9125C174.698 17.0078 174.775 17.0827 174.872 17.1209C174.968 17.1591 175.076 17.1573 175.171 17.116L175.193 17.1056L175.218 17.0913Z" fill="#501800"/>
<path d="M174.86 5.52622C175.357 3.14904 174.45 0.948421 172.835 0.610994C171.219 0.273566 169.507 1.92711 169.011 4.30428C168.514 6.68145 169.421 8.88206 171.036 9.21949C172.651 9.55692 174.363 7.90339 174.86 5.52622Z" fill="#501800"/>
<path d="M151.025 68.277C151.447 73.2348 154.441 104.169 154.846 110.276H209.838C210.154 104.768 211.572 80.6821 212.77 69.9105C213.914 59.6322 215.518 54.9544 214.2 51.7606C211.877 46.1261 204.482 43.6113 199.473 42.9334C196.415 42.5195 191.816 42.2228 191.816 42.2228C191.816 42.2228 191.426 50.0995 182.14 50.5377C169.499 51.1344 170.344 42.2228 170.281 42.2228C168.233 42.2228 157.086 43.7113 154.298 45.5281C152.709 46.4943 151.399 47.8575 150.497 49.4836C149.595 51.1097 149.131 52.9426 149.153 54.802C149.1 58.5007 150.546 62.6535 151.025 68.277Z" fill="#367CFF"/>
<path d="M153.814 98.0862C153.775 98.0861 153.737 98.0713 153.708 98.0448C153.679 98.0183 153.661 97.982 153.658 97.943L151.575 74.1178C151.572 74.0972 151.574 74.0762 151.58 74.0563C151.586 74.0364 151.596 74.0178 151.609 74.0018C151.623 73.9857 151.639 73.9724 151.657 73.9628C151.676 73.9531 151.696 73.9472 151.717 73.9454C151.737 73.9428 151.758 73.9445 151.779 73.9504C151.799 73.9563 151.817 73.9662 151.834 73.9795C151.85 73.9929 151.863 74.0094 151.872 74.028C151.882 74.0467 151.888 74.067 151.889 74.0879L153.973 97.9131C153.975 97.9337 153.973 97.9543 153.966 97.974C153.96 97.9936 153.95 98.0118 153.937 98.0276C153.924 98.0433 153.907 98.0563 153.889 98.0658C153.871 98.0752 153.851 98.081 153.83 98.0828L153.814 98.0862Z" fill="#0C0C0C"/>
<path d="M157.801 111.926L165.352 105.8L164.081 106.16C163.669 106.267 163.231 106.214 162.856 106.012C162.481 105.809 162.197 105.471 162.061 105.067C161.998 104.856 161.979 104.635 162.005 104.416C162.031 104.197 162.101 103.986 162.211 103.796C162.321 103.605 162.468 103.439 162.645 103.307C162.821 103.175 163.023 103.081 163.237 103.03L179.099 99.1718L180.464 104.224C180.887 105.793 180.833 107.453 180.307 108.991C179.781 110.528 178.807 111.874 177.512 112.855L171.634 117.289C171.333 117.526 170.96 117.651 170.577 117.644C170.194 117.637 169.826 117.497 169.534 117.25C169.276 117.021 169.097 116.715 169.025 116.377C168.952 116.039 168.99 115.687 169.132 115.372C169.114 115.367 169.096 115.358 169.082 115.346C169.067 115.334 169.054 115.319 169.046 115.302C169.037 115.285 169.031 115.267 169.03 115.248C169.028 115.229 169.031 115.21 169.037 115.191L167.954 116.012C167.62 116.276 167.197 116.403 166.772 116.368C166.348 116.333 165.952 116.137 165.666 115.822C165.419 115.531 165.284 115.162 165.283 114.781C165.282 114.4 165.415 114.031 165.659 113.738C165.642 113.735 165.626 113.73 165.611 113.721L165.166 114.058C164.865 114.294 164.492 114.42 164.109 114.412C163.726 114.405 163.358 114.266 163.067 114.018C162.752 113.74 162.558 113.351 162.525 112.933C162.491 112.515 162.621 112.1 162.887 111.776C162.881 111.766 162.875 111.757 162.871 111.746L159.727 114.297C159.571 114.423 159.392 114.518 159.199 114.575C159.007 114.632 158.805 114.651 158.605 114.63C158.406 114.609 158.212 114.55 158.036 114.454C157.859 114.358 157.703 114.229 157.577 114.073C157.45 113.917 157.356 113.738 157.298 113.546C157.241 113.353 157.222 113.152 157.243 112.952C157.264 112.752 157.324 112.559 157.42 112.382C157.515 112.206 157.645 112.05 157.8 111.923L157.801 111.926Z" fill="#FFA07B"/>
<path opacity="0.2" d="M163.064 111.838C163.08 111.832 163.096 111.823 163.11 111.812L166.135 109.299C166.165 109.273 166.183 109.237 166.186 109.197C166.19 109.157 166.177 109.118 166.152 109.088C166.127 109.057 166.09 109.037 166.051 109.033C166.011 109.029 165.972 109.04 165.94 109.065L162.915 111.578C162.887 111.601 162.869 111.633 162.862 111.668C162.856 111.703 162.862 111.74 162.88 111.771C162.898 111.802 162.926 111.825 162.959 111.838C162.993 111.85 163.03 111.85 163.064 111.838Z" fill="#0A0A0A"/>
<path opacity="0.2" d="M165.73 113.737C165.746 113.731 165.761 113.722 165.775 113.712L168.168 111.757C168.197 111.731 168.215 111.694 168.218 111.655C168.221 111.616 168.209 111.577 168.185 111.547C168.16 111.516 168.124 111.497 168.085 111.492C168.046 111.487 168.007 111.498 167.976 111.521L165.582 113.476C165.555 113.499 165.536 113.53 165.53 113.566C165.523 113.601 165.529 113.637 165.547 113.668C165.565 113.699 165.593 113.723 165.626 113.736C165.66 113.748 165.696 113.749 165.73 113.737Z" fill="#0A0A0A"/>
<path opacity="0.2" d="M169.231 115.377C169.249 115.37 169.265 115.361 169.279 115.349L170.388 114.398C170.403 114.385 170.415 114.369 170.424 114.351C170.433 114.334 170.439 114.314 170.44 114.294C170.441 114.274 170.439 114.254 170.433 114.235C170.427 114.217 170.417 114.199 170.404 114.184C170.391 114.169 170.375 114.156 170.357 114.147C170.339 114.138 170.32 114.133 170.3 114.132C170.28 114.13 170.26 114.133 170.241 114.139C170.222 114.145 170.204 114.155 170.189 114.168L169.081 115.118C169.054 115.142 169.036 115.174 169.03 115.209C169.024 115.244 169.031 115.28 169.049 115.31C169.067 115.341 169.095 115.364 169.128 115.377C169.161 115.389 169.198 115.389 169.231 115.377V115.377Z" fill="#0A0A0A"/>
<path d="M224.537 96.9231L224.48 96.6655L214.444 52.2797L194.586 56.7677L202.42 91.4163L171.036 99.1251L174.898 116.833L216.72 108.857C216.815 108.838 216.95 108.81 217.048 108.788C218.319 108.501 219.521 107.966 220.585 107.215C221.65 106.463 222.555 105.509 223.251 104.407C223.946 103.305 224.418 102.077 224.639 100.793C224.859 99.5089 224.825 98.1939 224.537 96.9231Z" fill="#367CFF"/>
<path d="M170.882 99.1574C170.874 99.1178 170.881 99.0765 170.903 99.0422C170.924 99.0079 170.958 98.9833 170.997 98.9734L202.24 91.3019L197.16 68.8675C197.151 68.827 197.158 68.7846 197.18 68.7495C197.202 68.7144 197.238 68.6895 197.278 68.6804C197.319 68.6712 197.361 68.6785 197.396 68.7007C197.431 68.7228 197.456 68.758 197.465 68.7985L202.58 91.3824C202.589 91.4224 202.582 91.4644 202.56 91.4994C202.539 91.5343 202.504 91.5594 202.465 91.5693L171.219 99.2413C171.219 99.2413 171.429 100.154 171.488 100.461C171.491 100.5 171.479 100.539 171.454 100.57C171.429 100.6 171.393 100.62 171.354 100.624C171.315 100.629 171.275 100.618 171.244 100.594C171.212 100.571 171.191 100.535 171.185 100.496C171.113 100.161 170.882 99.1574 170.882 99.1574Z" fill="#0C0C0C"/>
<path d="M172.107 123.882L160.04 86.7977C159.828 86.146 159.415 85.5781 158.861 85.1753C158.306 84.7725 157.638 84.5555 156.953 84.5554H107.795C107.282 84.5553 106.777 84.6765 106.32 84.9091C105.864 85.1417 105.469 85.4791 105.168 85.8937C104.867 86.3082 104.668 86.7882 104.588 87.2943C104.508 87.8004 104.549 88.3182 104.707 88.8054L116.774 125.889C116.986 126.541 117.398 127.109 117.953 127.512C118.508 127.915 119.176 128.132 119.861 128.132H169.02C169.532 128.132 170.037 128.01 170.494 127.778C170.95 127.545 171.345 127.208 171.646 126.793C171.947 126.379 172.146 125.899 172.226 125.393C172.306 124.887 172.265 124.369 172.107 123.882Z" fill="#EAEAEA"/>
<path d="M136.991 111.498C139.839 111.498 142.147 109.19 142.147 106.343C142.147 103.496 139.839 101.188 136.991 101.188C134.144 101.188 131.836 103.496 131.836 106.343C131.836 109.19 134.144 111.498 136.991 111.498Z" fill="white"/>
</svg>
