<svg width="766" height="590" viewBox="0 0 766 590" fill="none" xmlns="http://www.w3.org/2000/svg">
<path d="M104.079 487.881C85.1156 487.898 68.1822 476.408 61.753 459.163C47.9663 422.037 35.82 353.264 89.7989 278.876C149.485 196.625 268.885 111.594 352.869 102.883C484.437 89.2435 521.213 237.532 580.247 272.039C631.252 301.853 705.116 346.561 714.771 440.001C717.258 463.919 699.216 485.258 674.475 487.662C672.986 487.806 671.493 487.879 669.995 487.879L104.079 487.881Z" fill="#F3F5FD"/>
<path d="M110.659 485.381C99.3703 481.883 88.418 477.311 78.4386 464.516C76.3908 461.895 74.4666 458.536 75.5888 455.397C76.4335 453.036 78.8769 451.522 81.3597 451.137C82.2844 451.002 83.2217 450.976 84.1525 451.06C84.157 451.06 84.1616 451.063 84.1633 451.06C85.5934 451.206 87.0071 451.483 88.3867 451.887L88.7811 452.001C95.3674 453.873 101.641 456.707 107.4 460.411C107.922 460.743 108.541 460.889 109.157 460.825C109.772 460.762 110.348 460.491 110.791 460.059C111.233 459.626 111.516 459.057 111.594 458.443C111.672 457.829 111.54 457.207 111.219 456.677C110.632 455.718 109.948 454.82 109.179 453.999C108.044 452.812 106.801 451.734 105.466 450.779C103.692 449.485 101.798 448.328 99.9448 447.147C93.0565 442.76 86.5305 437.828 80.4295 432.399C76.075 428.52 71.8163 424.215 69.7468 418.762C68.7955 416.254 68.3629 413.363 69.4971 410.932C71.3689 406.943 76.6712 405.824 81.0069 406.653C88.6044 408.108 94.6739 413.677 100.056 419.228C104.519 423.84 109.52 428.947 115.933 429.231C117.026 429.333 118.125 429.112 119.094 428.596C120.923 427.488 121.394 424.921 120.741 422.883C120.089 420.845 118.581 419.217 117.125 417.653C108.662 408.572 100.332 399.125 94.8357 387.997C89.3396 376.869 86.9048 363.734 90.7241 351.919C91.844 348.466 93.5266 345.105 96.1512 342.596C98.7759 340.087 102.457 338.514 106.06 338.994C110.969 339.641 114.666 343.785 117.154 348.061C125.703 362.739 125.18 380.724 127.588 397.537C128.263 402.244 129.241 407.071 132.045 410.946C132.304 411.319 132.639 411.632 133.029 411.864C135.336 413.2 137.407 410.505 138.273 408.219C141.693 399.175 142.547 388.832 148.671 381.346C151.007 378.496 154.313 376.115 157.997 376.138C162.497 376.169 166.35 379.927 167.663 384.232C168.976 388.536 168.19 393.212 166.784 397.486C164.172 405.411 159.492 412.532 153.976 418.79C151.069 422.096 147.78 425.433 146.909 429.743C146.642 431.208 146.753 432.718 147.234 434.127C147.714 435.537 148.546 436.801 149.652 437.799C150.169 438.249 150.771 438.59 151.423 438.803C152.074 439.016 152.762 439.096 153.445 439.039C154.922 438.903 156.258 438.15 157.545 437.418C158.086 437.11 158.628 436.797 159.174 436.491C161.324 435.267 163.475 434.041 165.627 432.814C171.096 429.694 177.699 426.506 183.395 429.193C186.302 430.567 188.207 433.267 189.102 436.367C189.904 439.179 189.904 442.16 189.102 444.973C187.405 450.822 176.711 467.099 172.3 471.296C167.149 476.202 149.287 497.351 110.659 485.381Z" fill="#0C8234"/>
<path d="M571.132 106.369H217.138V362.721H571.132V106.369Z" fill="#DEE8F5"/>
<path d="M571.132 106.369H217.138V127.486H571.132V106.369Z" fill="#C1D8ED"/>
<path d="M559.276 122.226C562.202 122.226 564.574 119.854 564.574 116.928C564.574 114.002 562.202 111.63 559.276 111.63C556.349 111.63 553.977 114.002 553.977 116.928C553.977 119.854 556.349 122.226 559.276 122.226Z" fill="white"/>
<path d="M291.5 158.856H244.637V205.717H291.5V158.856Z" fill="white"/>
<path d="M354.533 158.856H307.67V205.717H354.533V158.856Z" fill="white"/>
<path d="M417.566 158.856H370.703V205.717H417.566V158.856Z" fill="white"/>
<path d="M480.6 158.856H433.737V205.717H480.6V158.856Z" fill="white"/>
<path d="M291.5 221.314H244.637V268.176H291.5V221.314Z" fill="white"/>
<path d="M354.533 221.314H307.67V268.176H354.533V221.314Z" fill="#FFC239"/>
<path d="M417.566 221.314H370.703V268.176H417.566V221.314Z" fill="white"/>
<path d="M480.6 221.314H433.737V268.176H480.6V221.314Z" fill="white"/>
<path d="M291.5 283.773H244.637V330.634H291.5V283.773Z" fill="white"/>
<path d="M354.533 283.773H307.67V330.634H354.533V283.773Z" fill="white"/>
<path d="M417.566 283.773H370.703V330.634H417.566V283.773Z" fill="white"/>
<path d="M480.6 283.773H433.737V330.634H480.6V283.773Z" fill="white"/>
<path d="M543.634 158.856H496.771V205.717H543.634V158.856Z" fill="white"/>
<path d="M543.634 221.314H496.771V268.176H543.634V221.314Z" fill="white"/>
<path d="M543.634 283.773H496.771V330.634H543.634V283.773Z" fill="white"/>
<path d="M279.86 482.835L267.974 481.422C268.509 476.923 269.114 471.52 269.154 470.634C269.154 470.691 269.154 470.737 269.154 470.773H281.124C281.121 471.131 281.121 472.223 279.86 482.835Z" fill="#E98862"/>
<path d="M232.168 484.266L220.198 484.227C220.198 484.227 220.238 471.867 220.238 470.773H232.208C232.208 471.87 232.168 484.266 232.168 484.266Z" fill="#E98862"/>
<path d="M284.275 478.697C283.285 453.614 283.225 427.27 282.914 402.121C278.798 374.996 276.634 345.245 271.553 318.312L271.401 318.357L270.956 315.319L227.595 312.643L225.908 340.969H226.07C223.887 378.916 219.667 439.919 217.114 478.376L238.128 480.151C241.881 442.33 247.431 382.078 250.822 344.802C254.544 363.796 258.623 385.186 261.927 404.405C262.651 428.957 263.256 454.543 263.19 479.055L284.275 478.697Z" fill="#262626"/>
<path d="M246.718 488.895C247.026 488.894 247.33 488.832 247.613 488.712C247.897 488.593 248.154 488.42 248.37 488.201C248.587 487.983 248.758 487.724 248.874 487.439C248.99 487.155 249.05 486.85 249.048 486.542C249.048 486.485 249.048 486.428 249.041 486.371C249.007 485.927 248.846 485.501 248.577 485.145C248.309 484.788 247.944 484.516 247.526 484.36L233.595 479.695C233.325 479.605 233.039 479.575 232.756 479.607C232.474 479.638 232.202 479.73 231.958 479.876C230.043 481.205 227.752 481.885 225.422 481.814C223.607 481.685 221.865 481.049 220.395 479.978C220.265 479.872 220.109 479.805 219.943 479.784C219.777 479.764 219.608 479.791 219.457 479.863C219.306 479.935 219.179 480.048 219.09 480.189C219 480.331 218.953 480.495 218.954 480.662V487.474C218.954 487.878 219.115 488.267 219.401 488.553C219.687 488.839 220.075 489 220.48 489H220.486L246.718 488.895Z" fill="#C1D8ED"/>
<path d="M294.443 488.895C294.75 488.894 295.055 488.832 295.338 488.712C295.622 488.593 295.879 488.42 296.095 488.201C296.312 487.983 296.483 487.724 296.599 487.439C296.715 487.155 296.774 486.85 296.773 486.542C296.773 486.485 296.773 486.428 296.766 486.371C296.732 485.926 296.571 485.501 296.302 485.144C296.034 484.788 295.669 484.516 295.251 484.36L281.32 479.694C281.05 479.605 280.764 479.575 280.481 479.606C280.198 479.637 279.926 479.729 279.682 479.876C277.767 481.204 275.476 481.884 273.146 481.814C271.332 481.684 269.59 481.048 268.119 479.977C267.99 479.871 267.833 479.804 267.667 479.784C267.501 479.763 267.333 479.791 267.182 479.862C267.031 479.934 266.903 480.047 266.814 480.189C266.725 480.33 266.678 480.494 266.679 480.661V487.473C266.679 487.878 266.839 488.266 267.126 488.552C267.412 488.839 267.8 488.999 268.205 488.999H268.211L294.443 488.895Z" fill="#C1D8ED"/>
<path d="M248.704 227.786L246.753 228.441C246.753 228.441 247.008 235.363 247.729 238.884C248.45 242.405 249.012 246.993 251.252 247.497C254.226 248.166 257.772 248.413 260.349 247.492C262.298 246.795 262.597 240.179 262.787 236.912C262.872 235.46 262.688 235.587 261.237 235.686C258.269 235.89 253.652 236.047 251.953 235.23C249.363 233.988 248.704 227.786 248.704 227.786Z" fill="#0F1011"/>
<path d="M241.489 253.725C241.489 253.725 245.896 251.388 244.912 239.387L254.018 237.698C254.018 237.698 252.992 248.458 257.601 251.874L241.489 253.725Z" fill="#E98862"/>
<path d="M239.745 234.734C240.376 238.374 242.362 241.823 245.575 242.998C249.387 244.394 252.211 244.489 256.607 244.489C262.606 244.489 262.408 238.232 262.577 231.928C262.748 225.601 262.709 220.254 260.338 218.048C255.607 213.645 241.249 214.989 239.559 222.352C238.686 226.161 239.145 231.268 239.745 234.734Z" fill="#E98862"/>
<path d="M236.857 230.05C237.733 235.585 238.88 237.331 240.536 239.977C241.518 241.63 242.836 243.059 244.405 244.171C245.625 244.957 257.601 244.794 259.669 244.492C262.719 244.045 263.181 235.355 262.636 235.355C261.958 235.355 261.797 235.337 261.033 235.337C259.64 235.337 259.5 227.034 259.238 223.361C259.452 223.331 259.668 223.316 259.884 223.316C266.441 223.314 235.386 220.759 236.857 230.05Z" fill="#0F1011"/>
<path d="M258.064 235.514C257.171 235.537 256.303 235.217 255.639 234.62C254.974 234.024 254.563 233.195 254.49 232.305C254.445 231.856 254.488 231.402 254.619 230.969C254.749 230.537 254.963 230.135 255.249 229.785C255.535 229.435 255.886 229.145 256.284 228.932C256.682 228.718 257.118 228.585 257.568 228.54C257.599 228.537 257.63 228.534 257.661 228.532C257.742 231.017 257.87 233.633 258.064 235.514Z" fill="#E98862"/>
<path d="M236.857 230.05C236.857 230.05 233.782 214.503 248.639 213.066C263.496 211.629 262.603 225.52 262.603 225.52L256.709 228.527C256.709 228.527 250.129 230.332 236.857 230.05Z" fill="#262626"/>
<path d="M238.975 228.242C238.939 226.891 239.441 225.58 240.371 224.599C241.3 223.617 242.581 223.045 243.933 223.007C245.284 222.969 246.595 223.469 247.578 224.397C248.561 225.325 249.135 226.606 249.175 227.957" fill="#0F1011"/>
<path d="M256.712 228.524C256.712 228.524 261.56 226.889 264.154 225.357C266.917 223.725 270.652 220.761 270.633 219.879C270.599 218.34 265.225 217.911 260.834 218.085L260.868 218.15C261.6 219.599 261.804 221.258 261.445 222.841C261.086 224.425 260.187 225.833 258.901 226.825L256.712 228.524Z" fill="#262626"/>
<path d="M214.832 333.18C214.832 334.878 215.728 340.556 214.286 340.962C213.421 341.205 212.4 336.972 212.4 336.972" fill="#E98862"/>
<path d="M208.024 332.288C208.024 332.288 203.314 343.752 208.686 350.337C208.823 350.505 209.007 350.627 209.214 350.688C209.422 350.749 209.643 350.747 209.848 350.681C210.054 350.614 210.235 350.488 210.368 350.317C210.501 350.146 210.579 349.94 210.593 349.724C210.854 345.284 211.749 336.163 214.677 337.228V330.065" fill="#E98862"/>
<path d="M314.232 271.21C314.232 271.21 320.811 265.985 321.276 264.108C321.741 262.232 317.108 258.54 317.108 258.54C317.108 258.54 323.269 252.328 322.04 251.431C320.59 250.368 313.442 259.4 313.442 259.4C313.442 259.4 314.452 256.151 313.194 255.937C312.677 255.85 312.267 256.357 311.458 258.657C310.536 261.279 308.692 265.22 308.692 265.22L314.232 271.21Z" fill="#E98862"/>
<path d="M307.305 264.262L287.848 286.154L272.63 258.911C271.189 254.607 267.909 251.724 261.218 251.437C258.929 251.339 247.763 251.323 239.588 251.323C234.096 251.323 229.587 253.008 226.983 255.612C225.671 256.905 224.69 258.494 224.122 260.245L224.042 260.216L210.96 295.79C210.814 296.189 210.708 296.602 210.645 297.023L205.365 332.595L217.659 334.419L222.845 299.478L228.129 285.112C228.679 287.32 228.979 289.583 229.025 291.858C229.025 303.827 223.61 309.195 224.009 315.34C224.636 324.998 271.56 322.716 273.951 317.23C276.413 311.573 271.417 308.087 271.635 289.582C271.659 287.568 271.814 285.462 272.029 283.317L281.262 299.845C281.745 300.711 282.429 301.448 283.256 301.996C284.082 302.544 285.028 302.885 286.013 302.993C286.999 303.1 287.996 302.97 288.921 302.613C289.846 302.257 290.672 301.684 291.331 300.943L316.913 271.021L307.305 264.262Z" fill="#367CFF"/>
<path d="M602.43 398.747L584.483 486.282C584.368 486.739 584.104 487.144 583.732 487.434C583.36 487.724 582.902 487.881 582.431 487.881C582.11 487.881 581.792 487.808 581.503 487.667C581.214 487.526 580.961 487.321 580.763 487.067C580.565 486.814 580.428 486.518 580.361 486.204C580.295 485.889 580.301 485.563 580.379 485.251L598.584 396.706L602.43 398.747Z" fill="#C1D8ED"/>
<path d="M644.597 398.607L662.544 486.141C662.659 486.598 662.924 487.003 663.295 487.293C663.667 487.583 664.125 487.74 664.596 487.74C664.918 487.741 665.235 487.667 665.525 487.526C665.814 487.385 666.067 487.18 666.265 486.927C666.462 486.673 666.6 486.378 666.666 486.063C666.733 485.748 666.727 485.423 666.648 485.111L648.445 396.565L644.597 398.607Z" fill="#C1D8ED"/>
<path d="M663.461 390.186H583.567C581.547 390.186 579.909 391.823 579.909 393.843V401.895C579.909 403.915 581.547 405.553 583.567 405.553H663.461C665.481 405.553 667.118 403.915 667.118 401.895V393.843C667.118 391.823 665.481 390.186 663.461 390.186Z" fill="#DEE8F5"/>
<path d="M640.752 349.7C638.363 348.918 635.911 349.795 633.567 351.581C636.655 343.779 637.931 336.734 632.65 336.417C628.954 336.195 626.123 339.03 623.973 343.06C623.216 335.973 621.265 330.688 616.894 332.44C612.095 334.364 611.365 340.958 612.093 347.856C609.978 344.332 607.704 342.368 605.635 344.436C599.467 350.604 614.608 367.988 614.608 367.988H618.369L620.515 370.318C620.081 371.235 619.843 371.782 619.843 371.782L622.569 377.329C622.569 377.329 650.664 352.945 640.752 349.7Z" fill="#6FBC0C"/>
<path d="M634.01 389.748H612.728L609.166 364.905H637.572L634.01 389.748Z" fill="#C1D8ED"/>
</svg>
