<svg width="674" height="440" viewBox="0 0 674 440" fill="none" xmlns="http://www.w3.org/2000/svg">
<path d="M674 440H0C7.38535 421.141 21.0213 405.142 40.2501 400.395C68.3747 393.461 98.1382 412.527 126.2 405.358C142.144 401.29 154.695 389.433 167.884 379.588C217.642 342.439 285.829 331.459 344.707 351.122C375.484 361.395 403.527 379.36 435.054 386.997C475.821 396.877 518.454 388.684 560.379 387.334C601.21 386.02 659.713 402.68 674 440Z" fill="#F3F5FD"/>
<path d="M546.617 16.8456H159.698V283.654H546.617V16.8456Z" fill="#F3F5FD"/>
<path d="M562.293 0H144.022V16.8457H562.293V0Z" fill="#191047"/>
<path d="M550.059 283.655H156.257V289.707H550.059V283.655Z" fill="#191047"/>
<path d="M356.407 34.8647H177.726V142.308H356.407V34.8647Z" fill="white"/>
<path d="M338.027 88.6201C338.026 94.1954 336.748 99.6961 334.29 104.699C331.832 109.701 328.261 114.073 323.851 117.476C319.441 120.879 314.309 123.224 308.852 124.329C303.395 125.435 297.758 125.271 292.373 123.852C286.989 122.432 282.002 119.795 277.796 116.142C273.59 112.489 270.277 107.918 268.112 102.781C265.947 97.6448 264.988 92.0792 265.309 86.5132C265.63 80.9471 267.222 75.529 269.963 70.676L301.638 88.6201L336.992 79.9963H337C337.685 82.8196 338.03 85.7147 338.027 88.6201Z" fill="#017FFA"/>
<path d="M337 79.9963L301.636 88.6201L315.739 55.0233C320.984 57.2337 325.64 60.6439 329.332 64.9807C333.024 69.3174 335.65 74.4601 337 79.9963Z" fill="#C1D8ED"/>
<path d="M244.641 63.5231H196.329V71.5102H244.641V63.5231Z" fill="#DEE8F5"/>
<path d="M244.641 84.5929H196.329V92.58H244.641V84.5929Z" fill="#DEE8F5"/>
<path d="M244.641 105.663H196.329V113.65H244.641V105.663Z" fill="#DEE8F5"/>
<path d="M315.741 55.0233L301.636 88.62L269.961 70.676C274.354 62.9067 281.441 57.0215 289.879 54.1361C298.316 51.2507 307.518 51.5657 315.739 55.0214L315.741 55.0233Z" fill="#F3F5FD"/>
<path d="M356.407 159.289H177.726V266.733H356.407V159.289Z" fill="white"/>
<path d="M213.075 199.933H195.434V249.565H213.075V199.933Z" fill="#C1D8ED"/>
<path d="M306.789 206.095H289.148V249.564H306.789V206.095Z" fill="#C1D8ED"/>
<path d="M244.313 186.802H226.672V249.564H244.313V186.802Z" fill="#C1D8ED"/>
<path d="M275.551 214.651H257.909V249.565H275.551V214.651Z" fill="#C1D8ED"/>
<path d="M338.027 196.907H320.385V249.565H338.027V196.907Z" fill="#C1D8ED"/>
<path d="M527.579 35.6586H374.759V267.526H527.579V35.6586Z" fill="white"/>
<path d="M451.169 103.956L469.089 72.2375C462.666 68.5994 455.29 67.0023 447.94 67.6583C440.59 68.3143 433.612 71.1922 427.933 75.9104C422.254 80.6286 418.141 86.9641 416.14 94.0768C414.139 101.189 414.345 108.743 416.73 115.736C419.114 122.729 423.566 128.831 429.493 133.232C435.421 137.634 442.544 140.127 449.919 140.381C457.294 140.635 464.572 138.638 470.788 134.655C477.003 130.672 481.863 124.89 484.722 118.078L451.169 103.956Z" fill="#FFC239"/>
<path d="M484.72 118.078L451.169 103.956L469.089 72.2375C476.847 76.6367 482.724 83.7335 485.606 92.1826C488.487 100.632 488.173 109.846 484.722 118.078H484.72Z" fill="#F3F5FD"/>
<path d="M503.676 164.758H398.662V172.212H503.676V164.758Z" fill="#DEE8F5"/>
<path d="M503.676 185.951H398.662V193.405H503.676V185.951Z" fill="#DEE8F5"/>
<path d="M503.676 207.142H398.662V214.597H503.676V207.142Z" fill="#DEE8F5"/>
<path d="M490.648 228.015H411.69V235.469H490.648V228.015Z" fill="#DEE8F5"/>
<path d="M152.423 260.121C165.421 317.447 177.185 375.161 186.469 433.213L173.416 435.902C159.064 378.894 147.133 321.213 136.471 263.406L152.423 260.121Z" fill="#E98862"/>
<path d="M125.559 263.672C126.759 320.624 126.673 377.702 124.084 434.617H110.754C108.167 377.704 108.089 320.623 109.279 263.672H125.559Z" fill="#E98862"/>
<path d="M141.322 439.878C141.674 439.876 142.021 439.805 142.345 439.669C142.669 439.533 142.963 439.334 143.21 439.084C143.458 438.834 143.653 438.538 143.786 438.212C143.919 437.886 143.987 437.537 143.985 437.185C143.985 437.12 143.985 437.055 143.977 436.99C143.938 436.48 143.754 435.993 143.447 435.585C143.14 435.177 142.723 434.866 142.245 434.688L126.324 429.348C126.016 429.245 125.689 429.211 125.366 429.247C125.043 429.283 124.732 429.388 124.453 429.556C122.264 431.076 119.646 431.854 116.983 431.773C114.909 431.626 112.918 430.898 111.237 429.672C111.09 429.55 110.911 429.474 110.721 429.45C110.531 429.427 110.339 429.458 110.166 429.54C109.994 429.622 109.848 429.752 109.746 429.914C109.645 430.076 109.591 430.263 109.591 430.455V438.251C109.591 438.714 109.775 439.158 110.102 439.486C110.43 439.813 110.873 439.997 111.336 439.997H111.343L141.322 439.878Z" fill="#017FFA"/>
<path d="M202.378 439.878C202.729 439.876 203.077 439.805 203.401 439.669C203.725 439.533 204.019 439.334 204.267 439.084C204.514 438.834 204.71 438.537 204.843 438.211C204.976 437.886 205.043 437.537 205.041 437.185C205.041 437.12 205.041 437.054 205.034 436.989C204.994 436.48 204.81 435.993 204.503 435.585C204.196 435.177 203.779 434.866 203.302 434.687L187.38 429.347C187.072 429.245 186.745 429.21 186.422 429.246C186.099 429.282 185.788 429.388 185.509 429.555C183.321 431.076 180.702 431.854 178.039 431.773C175.965 431.626 173.974 430.897 172.294 429.671C172.146 429.55 171.967 429.473 171.777 429.45C171.588 429.427 171.395 429.458 171.223 429.54C171.05 429.622 170.904 429.751 170.803 429.913C170.701 430.075 170.647 430.263 170.647 430.454V438.25C170.647 438.713 170.831 439.158 171.158 439.485C171.485 439.813 171.929 439.997 172.392 439.997H172.399L202.378 439.878Z" fill="#017FFA"/>
<path d="M101.019 239.084C101.019 239.084 93.6203 272.266 93.6203 300.172C93.6203 328.077 85.1237 371.298 85.1237 371.298C85.1237 371.298 109.203 367.398 125.539 371.298C153.684 378.017 178.92 363.385 178.92 363.385L150.574 242.147L101.019 239.084Z" fill="#262626"/>
<path d="M186.194 171.659C186.194 171.659 186.291 163.825 191.883 164.232C195.411 164.489 212.174 163.711 212.424 165.239C213.042 169.022 197.708 169.947 196.316 173.473L186.194 171.659Z" fill="#E98862"/>
<path d="M189.903 164.484C189.903 164.484 197.687 161.94 199.6 162.396C201.293 162.799 197.763 165.56 197.763 165.56L189.903 164.484Z" fill="#E98862"/>
<path d="M142.97 132.598C142.97 132.598 147.908 150.314 150.681 159.506C150.813 159.942 150.84 160.402 150.762 160.85C150.684 161.298 150.502 161.722 150.231 162.087C149.96 162.452 149.607 162.749 149.201 162.953C148.795 163.157 148.347 163.263 147.893 163.262H130.566C129.817 163.262 129.098 162.974 128.556 162.456C128.014 161.939 127.692 161.233 127.657 160.484L126.489 135.824L142.97 132.598Z" fill="#701111"/>
<path d="M116.416 172.005C116.416 172.005 121.456 169.335 120.343 155.6L130.752 153.676C130.752 153.676 129.571 165.989 134.832 169.903L116.416 172.005Z" fill="#E98862"/>
<g opacity="0.15">
<path d="M132.702 167.328L124.063 160.697L130.853 160.632C131.048 162.96 131.675 165.231 132.702 167.328Z" fill="black"/>
</g>
<path d="M114.443 150.269C115.159 154.437 117.427 158.385 121.097 159.734C125.096 161.328 129.425 161.918 133.704 161.451C145.098 160.526 142.867 134.585 137.463 129.541C132.058 124.498 116.182 127.674 114.244 136.1C113.241 140.458 113.761 146.305 114.443 150.269Z" fill="#E98862"/>
<path d="M130.744 147.074C131.265 147.074 131.688 146.651 131.688 146.129C131.688 145.607 131.265 145.183 130.744 145.183C130.222 145.183 129.8 145.607 129.8 146.129C129.8 146.651 130.222 147.074 130.744 147.074Z" fill="#701111"/>
<path d="M138.19 146.469C138.712 146.469 139.134 146.046 139.134 145.524C139.134 145.002 138.712 144.579 138.19 144.579C137.669 144.579 137.246 145.002 137.246 145.524C137.246 146.046 137.669 146.469 138.19 146.469Z" fill="#701111"/>
<path d="M139.828 143.512H139.822L137.321 143.478C137.262 143.479 137.203 143.468 137.147 143.446C137.092 143.424 137.041 143.391 136.999 143.349C136.957 143.307 136.923 143.257 136.901 143.202C136.878 143.147 136.867 143.087 136.868 143.028C136.869 142.968 136.881 142.909 136.905 142.855C136.929 142.8 136.964 142.751 137.008 142.71C137.051 142.669 137.102 142.637 137.158 142.617C137.214 142.596 137.274 142.587 137.333 142.59L139.834 142.623C139.892 142.624 139.95 142.635 140.003 142.658C140.057 142.681 140.106 142.714 140.147 142.755C140.187 142.797 140.22 142.846 140.242 142.9C140.264 142.954 140.275 143.012 140.274 143.07C140.274 143.129 140.262 143.186 140.24 143.24C140.217 143.294 140.184 143.343 140.142 143.384C140.101 143.425 140.052 143.457 139.998 143.479C139.944 143.501 139.886 143.512 139.828 143.512Z" fill="#701111"/>
<path d="M128.708 144.414C128.6 144.414 128.495 144.374 128.414 144.301C128.333 144.229 128.281 144.13 128.268 144.022C128.255 143.914 128.283 143.805 128.345 143.716C128.407 143.627 128.499 143.563 128.605 143.538L131.071 142.945C131.185 142.918 131.306 142.937 131.406 142.999C131.507 143.06 131.578 143.159 131.606 143.274C131.633 143.388 131.614 143.509 131.553 143.61C131.491 143.71 131.392 143.782 131.278 143.81L128.812 144.401C128.778 144.41 128.743 144.414 128.708 144.414Z" fill="#701111"/>
<path d="M131.174 153.572C131.174 153.572 134.657 153.943 137.101 153.092C137.101 153.092 137.08 155.389 134.322 155.613C131.565 155.838 131.174 153.572 131.174 153.572Z" fill="white"/>
<g opacity="0.15">
<path d="M134.929 151.375C134.851 151.375 134.776 151.347 134.716 151.296C134.657 151.245 134.619 151.174 134.607 151.097C134.596 151.02 134.612 150.941 134.654 150.875C134.695 150.809 134.759 150.76 134.834 150.737L136.753 150.15L135.413 147.155C135.381 147.076 135.381 146.988 135.412 146.91C135.443 146.831 135.504 146.768 135.581 146.733C135.659 146.698 135.746 146.695 135.826 146.724C135.905 146.753 135.97 146.812 136.008 146.888L137.649 150.558L135.025 151.363C134.993 151.371 134.961 151.375 134.929 151.375Z" fill="black"/>
</g>
<path d="M143.564 134.722C143.564 134.722 141.896 121.212 120.277 124.53C114.888 125.357 107.25 129.571 106.012 143.38C105.447 149.715 103.266 155.688 101.602 159.469C101.405 159.913 101.322 160.399 101.361 160.883C101.399 161.367 101.557 161.834 101.821 162.241C102.086 162.649 102.447 162.983 102.873 163.215C103.3 163.447 103.777 163.569 104.262 163.569L119.459 163.574C120.23 163.575 120.97 163.27 121.516 162.725C122.062 162.18 122.37 161.44 122.372 160.668C122.372 160.625 122.372 160.582 122.372 160.537C122.262 157.947 122.176 153.562 122.323 146.859C123.113 143.033 121.009 140.336 124.064 141.216C135.407 144.475 142.712 134.941 143.564 134.722Z" fill="#701111"/>
<path d="M125.977 150.198C126.063 151.257 125.725 152.307 125.037 153.117C124.35 153.927 123.37 154.43 122.312 154.516C121.254 154.602 120.206 154.263 119.397 153.575C118.588 152.887 118.086 151.905 118 150.846C117.899 149.806 118.214 148.768 118.876 147.961C119.538 147.154 120.494 146.643 121.532 146.541C121.576 146.536 121.62 146.532 121.662 146.53C124.515 146.436 125.795 147.992 125.977 150.198Z" fill="#E98862"/>
<path d="M185.536 167.082L171.501 193.325L150.501 173.655C149.536 172.148 148.211 170.906 146.646 170.042L146.546 169.948L146.521 169.974C144.149 168.781 141.536 168.146 138.881 168.119C138.471 168.099 137.813 168.086 136.967 168.073C136.798 171.661 114.611 171.647 114.143 167.988C107.876 167.995 102.737 169.919 99.7595 172.9C89.5003 183.173 102.092 200.68 102.092 214.378C102.092 228.076 95.904 234.22 96.36 241.252C97.0765 252.301 150.704 249.692 153.433 243.411C155.031 239.737 153.88 236.859 152.634 231.187L165.359 230.796L164.926 216.576L150.856 217.006C150.795 215.384 150.769 213.647 150.791 211.769C150.856 206.238 151.786 200.098 152.431 194.21L168.659 209.408C169.926 210.595 171.596 211.256 173.331 211.256C173.704 211.255 174.076 211.225 174.444 211.165C175.478 210.994 176.459 210.588 177.312 209.977C178.164 209.366 178.865 208.568 179.36 207.643L197.599 173.542L185.536 167.082Z" fill="#017FFA"/>
<path d="M136.967 168.073C136.798 171.661 134.85 176.937 128.838 177.335C120.826 177.864 114.612 171.647 114.143 167.988H114.163C122.05 167.988 132.368 168.001 136.967 168.073Z" fill="#E98862"/>
<path d="M162.007 182.674L154.098 215.921C153.975 216.439 153.971 216.977 154.086 217.497C154.2 218.016 154.431 218.502 154.76 218.92C155.089 219.337 155.508 219.674 155.986 219.906C156.464 220.138 156.988 220.259 157.519 220.259H204.148C204.918 220.259 205.667 220.005 206.28 219.538C206.893 219.07 207.335 218.413 207.539 217.669L216.652 184.422C216.795 183.9 216.816 183.351 216.713 182.819C216.609 182.287 216.385 181.787 216.057 181.356C215.729 180.925 215.306 180.576 214.821 180.335C214.336 180.095 213.802 179.969 213.261 179.969H165.427C164.636 179.969 163.869 180.237 163.248 180.727C162.628 181.218 162.19 181.904 162.007 182.674Z" fill="#EAEAEA"/>
<path d="M137.498 216.121H193.855C194.126 216.121 194.395 216.174 194.645 216.278C194.896 216.382 195.124 216.535 195.316 216.727C195.508 216.919 195.66 217.147 195.764 217.398C195.867 217.649 195.921 217.918 195.921 218.19C195.921 218.462 195.867 218.731 195.764 218.982C195.66 219.233 195.508 219.461 195.316 219.653C195.124 219.845 194.896 219.998 194.645 220.102C194.395 220.205 194.126 220.259 193.855 220.259H137.498C137.227 220.259 136.958 220.205 136.707 220.102C136.457 219.998 136.229 219.845 136.037 219.653C135.845 219.461 135.693 219.233 135.589 218.982C135.485 218.731 135.432 218.462 135.432 218.19C135.432 217.641 135.649 217.115 136.037 216.727C136.424 216.339 136.95 216.121 137.498 216.121Z" fill="#EAEAEA"/>
<path d="M187.284 205.308C190.329 205.308 192.798 202.835 192.798 199.785C192.798 196.736 190.329 194.263 187.284 194.263C184.238 194.263 181.769 196.736 181.769 199.785C181.769 202.835 184.238 205.308 187.284 205.308Z" fill="white"/>
<path d="M176.663 224.623C173.738 226.429 169.211 227.284 165.264 227.597L165.042 220.396C166.899 220.344 169.752 220.148 172.546 220.259C173.809 219.228 174.536 218.922 175.832 217.624C177.211 216.242 180.832 215.413 181.516 217.624C182.199 219.835 179.229 223.031 176.663 224.623Z" fill="#E98862"/>
<path d="M627.904 271.888C625.404 271.069 622.838 271.991 620.383 273.858C623.616 265.682 624.951 258.297 619.423 257.964C615.555 257.731 612.592 260.704 610.341 264.928C609.549 257.5 607.506 251.959 602.931 253.796C597.908 255.813 597.144 262.724 597.906 269.954C595.691 266.261 593.31 264.202 591.147 266.367C584.691 272.832 600.539 291.054 600.539 291.054H604.474L606.721 293.495C606.265 294.458 606.017 295.031 606.017 295.031L608.87 300.845C608.87 300.845 638.282 275.289 627.904 271.888Z" fill="#0C8234"/>
<path d="M620.849 313.866H598.574L594.846 287.827H624.579L620.849 313.866Z" fill="#C1D8ED"/>
<path d="M43.0699 416.335C43.0699 416.335 39.9433 300.648 9.95698 298.713C-20.0293 296.779 34.5472 423.837 34.5472 423.837" fill="#6FBC0C"/>
<path d="M44.4059 408.429C44.4059 408.429 81.7879 325.189 56.8987 308.33C32.0095 291.472 33.2673 410.581 33.2673 410.581" fill="#0C8234"/>
<path d="M52.229 401.259H18.6197V440H52.229V401.259Z" fill="#EAEAEA"/>
<path d="M564.786 415.774H553.103V440H564.786V415.774Z" fill="#C1D8ED"/>
<path d="M638.132 415.774H626.449V440H638.132V415.774Z" fill="#C1D8ED"/>
<path d="M648.842 313.14H542.393V432.186H648.842V313.14Z" fill="#C1D8ED"/>
<path d="M620.571 313.14H514.121V432.186H620.571V313.14Z" fill="#DEE8F5"/>
<path d="M536.515 415.774H524.831V440H536.515V415.774Z" fill="#DEE8F5"/>
<path d="M609.861 415.774H598.177V440H609.861V415.774Z" fill="#DEE8F5"/>
<g opacity="0.53">
<path d="M614.844 320.501H519.848V350.694H614.844V320.501Z" fill="#F3F5FD"/>
</g>
<g opacity="0.53">
<path d="M614.844 358.084H519.848V388.278H614.844V358.084Z" fill="#F3F5FD"/>
</g>
<g opacity="0.53">
<path d="M614.844 395.667H519.848V425.861H614.844V395.667Z" fill="#F3F5FD"/>
</g>
<path d="M567.346 339.822C569.676 339.822 571.565 337.93 571.565 335.597C571.565 333.264 569.676 331.372 567.346 331.372C565.016 331.372 563.127 333.264 563.127 335.597C563.127 337.93 565.016 339.822 567.346 339.822Z" fill="white"/>
<path d="M567.346 377.406C569.676 377.406 571.565 375.514 571.565 373.181C571.565 370.848 569.676 368.956 567.346 368.956C565.016 368.956 563.127 370.848 563.127 373.181C563.127 375.514 565.016 377.406 567.346 377.406Z" fill="white"/>
<path d="M567.346 414.99C569.676 414.99 571.565 413.098 571.565 410.765C571.565 408.432 569.676 406.54 567.346 406.54C565.016 406.54 563.127 408.432 563.127 410.765C563.127 413.098 565.016 414.99 567.346 414.99Z" fill="white"/>
</svg>
